<?xml version="1.0" encoding="utf-8" standalone="no"?>
<!DOCTYPE svg PUBLIC "-//W3C//DTD SVG 1.1//EN"
  "http://www.w3.org/Graphics/SVG/1.1/DTD/svg11.dtd">
<svg xmlns:xlink="http://www.w3.org/1999/xlink" width="496.03727pt" height="207.387031pt" viewBox="0 0 496.03727 207.387031" xmlns="http://www.w3.org/2000/svg" version="1.1">
 <metadata>
  <rdf:RDF xmlns:dc="http://purl.org/dc/elements/1.1/" xmlns:cc="http://creativecommons.org/ns#" xmlns:rdf="http://www.w3.org/1999/02/22-rdf-syntax-ns#">
   <cc:Work>
    <dc:type rdf:resource="http://purl.org/dc/dcmitype/StillImage"/>
    <dc:date>2026-06-26T08:27:39.389596</dc:date>
    <dc:format>image/svg+xml</dc:format>
    <dc:creator>
     <cc:Agent>
      <dc:title>Matplotlib v3.10.9, https://matplotlib.org/</dc:title>
     </cc:Agent>
    </dc:creator>
   </cc:Work>
  </rdf:RDF>
 </metadata>
 <defs>
  <style type="text/css">*{stroke-linejoin: round; stroke-linecap: butt}</style>
 </defs>
 <g id="figure_1">
  <g id="patch_1">
   <path d="M 0 207.387031 
L 496.03727 207.387031 
L 496.03727 0 
L 0 0 
z
" style="fill: #ffffff"/>
  </g>
  <g id="axes_1">
   <g id="patch_2">
    <path d="M 39.330625 170.798594 
L 239.368722 170.798594 
L 239.368722 20.038594 
L 39.330625 20.038594 
z
" style="fill: #ffffff"/>
   </g>
   <g id="matplotlib.axis_1">
    <g id="xtick_1">
     <g id="line2d_1">
      <path d="M 48.423266 170.798594 
L 48.423266 20.038594 
" clip-path="url(#p2ca69009b4)" style="fill: none; stroke-dasharray: 0.5,0.825; stroke-dashoffset: 0; stroke: #b0b0b0; stroke-opacity: 0.6; stroke-width: 0.5"/>
     </g>
     <g id="line2d_2">
      <defs>
       <path id="m5f1c4ed7b0" d="M 0 0 
L 0 3.5 
" style="stroke: #000000; stroke-width: 0.8"/>
      </defs>
      <g>
       <use xlink:href="#m5f1c4ed7b0" x="48.423266" y="170.798594" style="stroke: #000000; stroke-width: 0.8"/>
      </g>
     </g>
     <g id="text_1">
      <!-- 0 -->
      <g transform="translate(45.560141 184.637187) scale(0.09 -0.09)">
       <defs>
        <path id="DejaVuSans-30" d="M 2034 4250 
Q 1547 4250 1301 3770 
Q 1056 3291 1056 2328 
Q 1056 1369 1301 889 
Q 1547 409 2034 409 
Q 2525 409 2770 889 
Q 3016 1369 3016 2328 
Q 3016 3291 2770 3770 
Q 2525 4250 2034 4250 
z
M 2034 4750 
Q 2819 4750 3233 4129 
Q 3647 3509 3647 2328 
Q 3647 1150 3233 529 
Q 2819 -91 2034 -91 
Q 1250 -91 836 529 
Q 422 1150 422 2328 
Q 422 3509 836 4129 
Q 1250 4750 2034 4750 
z
" transform="scale(0.015625)"/>
       </defs>
       <use xlink:href="#DejaVuSans-30"/>
      </g>
     </g>
    </g>
    <g id="xtick_2">
     <g id="line2d_3">
      <path d="M 92.476545 170.798594 
L 92.476545 20.038594 
" clip-path="url(#p2ca69009b4)" style="fill: none; stroke-dasharray: 0.5,0.825; stroke-dashoffset: 0; stroke: #b0b0b0; stroke-opacity: 0.6; stroke-width: 0.5"/>
     </g>
     <g id="line2d_4">
      <g>
       <use xlink:href="#m5f1c4ed7b0" x="92.476545" y="170.798594" style="stroke: #000000; stroke-width: 0.8"/>
      </g>
     </g>
     <g id="text_2">
      <!-- 100 -->
      <g transform="translate(83.88717 184.637187) scale(0.09 -0.09)">
       <defs>
        <path id="DejaVuSans-31" d="M 794 531 
L 1825 531 
L 1825 4091 
L 703 3866 
L 703 4441 
L 1819 4666 
L 2450 4666 
L 2450 531 
L 3481 531 
L 3481 0 
L 794 0 
L 794 531 
z
" transform="scale(0.015625)"/>
       </defs>
       <use xlink:href="#DejaVuSans-31"/>
       <use xlink:href="#DejaVuSans-30" transform="translate(63.623047 0)"/>
       <use xlink:href="#DejaVuSans-30" transform="translate(127.246094 0)"/>
      </g>
     </g>
    </g>
    <g id="xtick_3">
     <g id="line2d_5">
      <path d="M 136.529823 170.798594 
L 136.529823 20.038594 
" clip-path="url(#p2ca69009b4)" style="fill: none; stroke-dasharray: 0.5,0.825; stroke-dashoffset: 0; stroke: #b0b0b0; stroke-opacity: 0.6; stroke-width: 0.5"/>
     </g>
     <g id="line2d_6">
      <g>
       <use xlink:href="#m5f1c4ed7b0" x="136.529823" y="170.798594" style="stroke: #000000; stroke-width: 0.8"/>
      </g>
     </g>
     <g id="text_3">
      <!-- 200 -->
      <g transform="translate(127.940448 184.637187) scale(0.09 -0.09)">
       <defs>
        <path id="DejaVuSans-32" d="M 1228 531 
L 3431 531 
L 3431 0 
L 469 0 
L 469 531 
Q 828 903 1448 1529 
Q 2069 2156 2228 2338 
Q 2531 2678 2651 2914 
Q 2772 3150 2772 3378 
Q 2772 3750 2511 3984 
Q 2250 4219 1831 4219 
Q 1534 4219 1204 4116 
Q 875 4013 500 3803 
L 500 4441 
Q 881 4594 1212 4672 
Q 1544 4750 1819 4750 
Q 2544 4750 2975 4387 
Q 3406 4025 3406 3419 
Q 3406 3131 3298 2873 
Q 3191 2616 2906 2266 
Q 2828 2175 2409 1742 
Q 1991 1309 1228 531 
z
" transform="scale(0.015625)"/>
       </defs>
       <use xlink:href="#DejaVuSans-32"/>
       <use xlink:href="#DejaVuSans-30" transform="translate(63.623047 0)"/>
       <use xlink:href="#DejaVuSans-30" transform="translate(127.246094 0)"/>
      </g>
     </g>
    </g>
    <g id="xtick_4">
     <g id="line2d_7">
      <path d="M 180.583102 170.798594 
L 180.583102 20.038594 
" clip-path="url(#p2ca69009b4)" style="fill: none; stroke-dasharray: 0.5,0.825; stroke-dashoffset: 0; stroke: #b0b0b0; stroke-opacity: 0.6; stroke-width: 0.5"/>
     </g>
     <g id="line2d_8">
      <g>
       <use xlink:href="#m5f1c4ed7b0" x="180.583102" y="170.798594" style="stroke: #000000; stroke-width: 0.8"/>
      </g>
     </g>
     <g id="text_4">
      <!-- 300 -->
      <g transform="translate(171.993727 184.637187) scale(0.09 -0.09)">
       <defs>
        <path id="DejaVuSans-33" d="M 2597 2516 
Q 3050 2419 3304 2112 
Q 3559 1806 3559 1356 
Q 3559 666 3084 287 
Q 2609 -91 1734 -91 
Q 1441 -91 1130 -33 
Q 819 25 488 141 
L 488 750 
Q 750 597 1062 519 
Q 1375 441 1716 441 
Q 2309 441 2620 675 
Q 2931 909 2931 1356 
Q 2931 1769 2642 2001 
Q 2353 2234 1838 2234 
L 1294 2234 
L 1294 2753 
L 1863 2753 
Q 2328 2753 2575 2939 
Q 2822 3125 2822 3475 
Q 2822 3834 2567 4026 
Q 2313 4219 1838 4219 
Q 1578 4219 1281 4162 
Q 984 4106 628 3988 
L 628 4550 
Q 988 4650 1302 4700 
Q 1616 4750 1894 4750 
Q 2613 4750 3031 4423 
Q 3450 4097 3450 3541 
Q 3450 3153 3228 2886 
Q 3006 2619 2597 2516 
z
" transform="scale(0.015625)"/>
       </defs>
       <use xlink:href="#DejaVuSans-33"/>
       <use xlink:href="#DejaVuSans-30" transform="translate(63.623047 0)"/>
       <use xlink:href="#DejaVuSans-30" transform="translate(127.246094 0)"/>
      </g>
     </g>
    </g>
    <g id="xtick_5">
     <g id="line2d_9">
      <path d="M 224.636381 170.798594 
L 224.636381 20.038594 
" clip-path="url(#p2ca69009b4)" style="fill: none; stroke-dasharray: 0.5,0.825; stroke-dashoffset: 0; stroke: #b0b0b0; stroke-opacity: 0.6; stroke-width: 0.5"/>
     </g>
     <g id="line2d_10">
      <g>
       <use xlink:href="#m5f1c4ed7b0" x="224.636381" y="170.798594" style="stroke: #000000; stroke-width: 0.8"/>
      </g>
     </g>
     <g id="text_5">
      <!-- 400 -->
      <g transform="translate(216.047006 184.637187) scale(0.09 -0.09)">
       <defs>
        <path id="DejaVuSans-34" d="M 2419 4116 
L 825 1625 
L 2419 1625 
L 2419 4116 
z
M 2253 4666 
L 3047 4666 
L 3047 1625 
L 3713 1625 
L 3713 1100 
L 3047 1100 
L 3047 0 
L 2419 0 
L 2419 1100 
L 313 1100 
L 313 1709 
L 2253 4666 
z
" transform="scale(0.015625)"/>
       </defs>
       <use xlink:href="#DejaVuSans-34"/>
       <use xlink:href="#DejaVuSans-30" transform="translate(63.623047 0)"/>
       <use xlink:href="#DejaVuSans-30" transform="translate(127.246094 0)"/>
      </g>
     </g>
    </g>
    <g id="text_6">
     <!-- Time (s) -->
     <g transform="translate(119.020767 198.107344) scale(0.1 -0.1)">
      <defs>
       <path id="DejaVuSans-54" d="M -19 4666 
L 3928 4666 
L 3928 4134 
L 2272 4134 
L 2272 0 
L 1638 0 
L 1638 4134 
L -19 4134 
L -19 4666 
z
" transform="scale(0.015625)"/>
       <path id="DejaVuSans-69" d="M 603 3500 
L 1178 3500 
L 1178 0 
L 603 0 
L 603 3500 
z
M 603 4863 
L 1178 4863 
L 1178 4134 
L 603 4134 
L 603 4863 
z
" transform="scale(0.015625)"/>
       <path id="DejaVuSans-6d" d="M 3328 2828 
Q 3544 3216 3844 3400 
Q 4144 3584 4550 3584 
Q 5097 3584 5394 3201 
Q 5691 2819 5691 2113 
L 5691 0 
L 5113 0 
L 5113 2094 
Q 5113 2597 4934 2840 
Q 4756 3084 4391 3084 
Q 3944 3084 3684 2787 
Q 3425 2491 3425 1978 
L 3425 0 
L 2847 0 
L 2847 2094 
Q 2847 2600 2669 2842 
Q 2491 3084 2119 3084 
Q 1678 3084 1418 2786 
Q 1159 2488 1159 1978 
L 1159 0 
L 581 0 
L 581 3500 
L 1159 3500 
L 1159 2956 
Q 1356 3278 1631 3431 
Q 1906 3584 2284 3584 
Q 2666 3584 2933 3390 
Q 3200 3197 3328 2828 
z
" transform="scale(0.015625)"/>
       <path id="DejaVuSans-65" d="M 3597 1894 
L 3597 1613 
L 953 1613 
Q 991 1019 1311 708 
Q 1631 397 2203 397 
Q 2534 397 2845 478 
Q 3156 559 3463 722 
L 3463 178 
Q 3153 47 2828 -22 
Q 2503 -91 2169 -91 
Q 1331 -91 842 396 
Q 353 884 353 1716 
Q 353 2575 817 3079 
Q 1281 3584 2069 3584 
Q 2775 3584 3186 3129 
Q 3597 2675 3597 1894 
z
M 3022 2063 
Q 3016 2534 2758 2815 
Q 2500 3097 2075 3097 
Q 1594 3097 1305 2825 
Q 1016 2553 972 2059 
L 3022 2063 
z
" transform="scale(0.015625)"/>
       <path id="DejaVuSans-20" transform="scale(0.015625)"/>
       <path id="DejaVuSans-28" d="M 1984 4856 
Q 1566 4138 1362 3434 
Q 1159 2731 1159 2009 
Q 1159 1288 1364 580 
Q 1569 -128 1984 -844 
L 1484 -844 
Q 1016 -109 783 600 
Q 550 1309 550 2009 
Q 550 2706 781 3412 
Q 1013 4119 1484 4856 
L 1984 4856 
z
" transform="scale(0.015625)"/>
       <path id="DejaVuSans-73" d="M 2834 3397 
L 2834 2853 
Q 2591 2978 2328 3040 
Q 2066 3103 1784 3103 
Q 1356 3103 1142 2972 
Q 928 2841 928 2578 
Q 928 2378 1081 2264 
Q 1234 2150 1697 2047 
L 1894 2003 
Q 2506 1872 2764 1633 
Q 3022 1394 3022 966 
Q 3022 478 2636 193 
Q 2250 -91 1575 -91 
Q 1294 -91 989 -36 
Q 684 19 347 128 
L 347 722 
Q 666 556 975 473 
Q 1284 391 1588 391 
Q 1994 391 2212 530 
Q 2431 669 2431 922 
Q 2431 1156 2273 1281 
Q 2116 1406 1581 1522 
L 1381 1569 
Q 847 1681 609 1914 
Q 372 2147 372 2553 
Q 372 3047 722 3315 
Q 1072 3584 1716 3584 
Q 2034 3584 2315 3537 
Q 2597 3491 2834 3397 
z
" transform="scale(0.015625)"/>
       <path id="DejaVuSans-29" d="M 513 4856 
L 1013 4856 
Q 1481 4119 1714 3412 
Q 1947 2706 1947 2009 
Q 1947 1309 1714 600 
Q 1481 -109 1013 -844 
L 513 -844 
Q 928 -128 1133 580 
Q 1338 1288 1338 2009 
Q 1338 2731 1133 3434 
Q 928 4138 513 4856 
z
" transform="scale(0.015625)"/>
      </defs>
      <use xlink:href="#DejaVuSans-54"/>
      <use xlink:href="#DejaVuSans-69" transform="translate(57.958984 0)"/>
      <use xlink:href="#DejaVuSans-6d" transform="translate(85.742188 0)"/>
      <use xlink:href="#DejaVuSans-65" transform="translate(183.154297 0)"/>
      <use xlink:href="#DejaVuSans-20" transform="translate(244.677734 0)"/>
      <use xlink:href="#DejaVuSans-28" transform="translate(276.464844 0)"/>
      <use xlink:href="#DejaVuSans-73" transform="translate(315.478516 0)"/>
      <use xlink:href="#DejaVuSans-29" transform="translate(367.578125 0)"/>
     </g>
    </g>
   </g>
   <g id="matplotlib.axis_2">
    <g id="ytick_1">
     <g id="line2d_11">
      <path d="M 39.330625 163.945866 
L 239.368722 163.945866 
" clip-path="url(#p2ca69009b4)" style="fill: none; stroke-dasharray: 0.5,0.825; stroke-dashoffset: 0; stroke: #b0b0b0; stroke-opacity: 0.6; stroke-width: 0.5"/>
     </g>
     <g id="line2d_12">
      <defs>
       <path id="mc4af61dc3b" d="M 0 0 
L -3.5 0 
" style="stroke: #000000; stroke-width: 0.8"/>
      </defs>
      <g>
       <use xlink:href="#mc4af61dc3b" x="39.330625" y="163.945866" style="stroke: #000000; stroke-width: 0.8"/>
      </g>
     </g>
     <g id="text_7">
      <!-- 0 -->
      <g transform="translate(26.604375 167.365163) scale(0.09 -0.09)">
       <use xlink:href="#DejaVuSans-30"/>
      </g>
     </g>
    </g>
    <g id="ytick_2">
     <g id="line2d_13">
      <path d="M 39.330625 136.397214 
L 239.368722 136.397214 
" clip-path="url(#p2ca69009b4)" style="fill: none; stroke-dasharray: 0.5,0.825; stroke-dashoffset: 0; stroke: #b0b0b0; stroke-opacity: 0.6; stroke-width: 0.5"/>
     </g>
     <g id="line2d_14">
      <g>
       <use xlink:href="#mc4af61dc3b" x="39.330625" y="136.397214" style="stroke: #000000; stroke-width: 0.8"/>
      </g>
     </g>
     <g id="text_8">
      <!-- 10 -->
      <g transform="translate(20.878125 139.816511) scale(0.09 -0.09)">
       <use xlink:href="#DejaVuSans-31"/>
       <use xlink:href="#DejaVuSans-30" transform="translate(63.623047 0)"/>
      </g>
     </g>
    </g>
    <g id="ytick_3">
     <g id="line2d_15">
      <path d="M 39.330625 108.848562 
L 239.368722 108.848562 
" clip-path="url(#p2ca69009b4)" style="fill: none; stroke-dasharray: 0.5,0.825; stroke-dashoffset: 0; stroke: #b0b0b0; stroke-opacity: 0.6; stroke-width: 0.5"/>
     </g>
     <g id="line2d_16">
      <g>
       <use xlink:href="#mc4af61dc3b" x="39.330625" y="108.848562" style="stroke: #000000; stroke-width: 0.8"/>
      </g>
     </g>
     <g id="text_9">
      <!-- 20 -->
      <g transform="translate(20.878125 112.267859) scale(0.09 -0.09)">
       <use xlink:href="#DejaVuSans-32"/>
       <use xlink:href="#DejaVuSans-30" transform="translate(63.623047 0)"/>
      </g>
     </g>
    </g>
    <g id="ytick_4">
     <g id="line2d_17">
      <path d="M 39.330625 81.299909 
L 239.368722 81.299909 
" clip-path="url(#p2ca69009b4)" style="fill: none; stroke-dasharray: 0.5,0.825; stroke-dashoffset: 0; stroke: #b0b0b0; stroke-opacity: 0.6; stroke-width: 0.5"/>
     </g>
     <g id="line2d_18">
      <g>
       <use xlink:href="#mc4af61dc3b" x="39.330625" y="81.299909" style="stroke: #000000; stroke-width: 0.8"/>
      </g>
     </g>
     <g id="text_10">
      <!-- 30 -->
      <g transform="translate(20.878125 84.719206) scale(0.09 -0.09)">
       <use xlink:href="#DejaVuSans-33"/>
       <use xlink:href="#DejaVuSans-30" transform="translate(63.623047 0)"/>
      </g>
     </g>
    </g>
    <g id="ytick_5">
     <g id="line2d_19">
      <path d="M 39.330625 53.751257 
L 239.368722 53.751257 
" clip-path="url(#p2ca69009b4)" style="fill: none; stroke-dasharray: 0.5,0.825; stroke-dashoffset: 0; stroke: #b0b0b0; stroke-opacity: 0.6; stroke-width: 0.5"/>
     </g>
     <g id="line2d_20">
      <g>
       <use xlink:href="#mc4af61dc3b" x="39.330625" y="53.751257" style="stroke: #000000; stroke-width: 0.8"/>
      </g>
     </g>
     <g id="text_11">
      <!-- 40 -->
      <g transform="translate(20.878125 57.170554) scale(0.09 -0.09)">
       <use xlink:href="#DejaVuSans-34"/>
       <use xlink:href="#DejaVuSans-30" transform="translate(63.623047 0)"/>
      </g>
     </g>
    </g>
    <g id="ytick_6">
     <g id="line2d_21">
      <path d="M 39.330625 26.202605 
L 239.368722 26.202605 
" clip-path="url(#p2ca69009b4)" style="fill: none; stroke-dasharray: 0.5,0.825; stroke-dashoffset: 0; stroke: #b0b0b0; stroke-opacity: 0.6; stroke-width: 0.5"/>
     </g>
     <g id="line2d_22">
      <g>
       <use xlink:href="#mc4af61dc3b" x="39.330625" y="26.202605" style="stroke: #000000; stroke-width: 0.8"/>
      </g>
     </g>
     <g id="text_12">
      <!-- 50 -->
      <g transform="translate(20.878125 29.621902) scale(0.09 -0.09)">
       <defs>
        <path id="DejaVuSans-35" d="M 691 4666 
L 3169 4666 
L 3169 4134 
L 1269 4134 
L 1269 2991 
Q 1406 3038 1543 3061 
Q 1681 3084 1819 3084 
Q 2600 3084 3056 2656 
Q 3513 2228 3513 1497 
Q 3513 744 3044 326 
Q 2575 -91 1722 -91 
Q 1428 -91 1123 -41 
Q 819 9 494 109 
L 494 744 
Q 775 591 1075 516 
Q 1375 441 1709 441 
Q 2250 441 2565 725 
Q 2881 1009 2881 1497 
Q 2881 1984 2565 2268 
Q 2250 2553 1709 2553 
Q 1456 2553 1204 2497 
Q 953 2441 691 2322 
L 691 4666 
z
" transform="scale(0.015625)"/>
       </defs>
       <use xlink:href="#DejaVuSans-35"/>
       <use xlink:href="#DejaVuSans-30" transform="translate(63.623047 0)"/>
      </g>
     </g>
    </g>
    <g id="text_13">
     <!-- Avg cumul. completed tasks -->
     <g transform="translate(14.798438 166.039687) rotate(-90) scale(0.1 -0.1)">
      <defs>
       <path id="DejaVuSans-41" d="M 2188 4044 
L 1331 1722 
L 3047 1722 
L 2188 4044 
z
M 1831 4666 
L 2547 4666 
L 4325 0 
L 3669 0 
L 3244 1197 
L 1141 1197 
L 716 0 
L 50 0 
L 1831 4666 
z
" transform="scale(0.015625)"/>
       <path id="DejaVuSans-76" d="M 191 3500 
L 800 3500 
L 1894 563 
L 2988 3500 
L 3597 3500 
L 2284 0 
L 1503 0 
L 191 3500 
z
" transform="scale(0.015625)"/>
       <path id="DejaVuSans-67" d="M 2906 1791 
Q 2906 2416 2648 2759 
Q 2391 3103 1925 3103 
Q 1463 3103 1205 2759 
Q 947 2416 947 1791 
Q 947 1169 1205 825 
Q 1463 481 1925 481 
Q 2391 481 2648 825 
Q 2906 1169 2906 1791 
z
M 3481 434 
Q 3481 -459 3084 -895 
Q 2688 -1331 1869 -1331 
Q 1566 -1331 1297 -1286 
Q 1028 -1241 775 -1147 
L 775 -588 
Q 1028 -725 1275 -790 
Q 1522 -856 1778 -856 
Q 2344 -856 2625 -561 
Q 2906 -266 2906 331 
L 2906 616 
Q 2728 306 2450 153 
Q 2172 0 1784 0 
Q 1141 0 747 490 
Q 353 981 353 1791 
Q 353 2603 747 3093 
Q 1141 3584 1784 3584 
Q 2172 3584 2450 3431 
Q 2728 3278 2906 2969 
L 2906 3500 
L 3481 3500 
L 3481 434 
z
" transform="scale(0.015625)"/>
       <path id="DejaVuSans-63" d="M 3122 3366 
L 3122 2828 
Q 2878 2963 2633 3030 
Q 2388 3097 2138 3097 
Q 1578 3097 1268 2742 
Q 959 2388 959 1747 
Q 959 1106 1268 751 
Q 1578 397 2138 397 
Q 2388 397 2633 464 
Q 2878 531 3122 666 
L 3122 134 
Q 2881 22 2623 -34 
Q 2366 -91 2075 -91 
Q 1284 -91 818 406 
Q 353 903 353 1747 
Q 353 2603 823 3093 
Q 1294 3584 2113 3584 
Q 2378 3584 2631 3529 
Q 2884 3475 3122 3366 
z
" transform="scale(0.015625)"/>
       <path id="DejaVuSans-75" d="M 544 1381 
L 544 3500 
L 1119 3500 
L 1119 1403 
Q 1119 906 1312 657 
Q 1506 409 1894 409 
Q 2359 409 2629 706 
Q 2900 1003 2900 1516 
L 2900 3500 
L 3475 3500 
L 3475 0 
L 2900 0 
L 2900 538 
Q 2691 219 2414 64 
Q 2138 -91 1772 -91 
Q 1169 -91 856 284 
Q 544 659 544 1381 
z
M 1991 3584 
L 1991 3584 
z
" transform="scale(0.015625)"/>
       <path id="DejaVuSans-6c" d="M 603 4863 
L 1178 4863 
L 1178 0 
L 603 0 
L 603 4863 
z
" transform="scale(0.015625)"/>
       <path id="DejaVuSans-2e" d="M 684 794 
L 1344 794 
L 1344 0 
L 684 0 
L 684 794 
z
" transform="scale(0.015625)"/>
       <path id="DejaVuSans-6f" d="M 1959 3097 
Q 1497 3097 1228 2736 
Q 959 2375 959 1747 
Q 959 1119 1226 758 
Q 1494 397 1959 397 
Q 2419 397 2687 759 
Q 2956 1122 2956 1747 
Q 2956 2369 2687 2733 
Q 2419 3097 1959 3097 
z
M 1959 3584 
Q 2709 3584 3137 3096 
Q 3566 2609 3566 1747 
Q 3566 888 3137 398 
Q 2709 -91 1959 -91 
Q 1206 -91 779 398 
Q 353 888 353 1747 
Q 353 2609 779 3096 
Q 1206 3584 1959 3584 
z
" transform="scale(0.015625)"/>
       <path id="DejaVuSans-70" d="M 1159 525 
L 1159 -1331 
L 581 -1331 
L 581 3500 
L 1159 3500 
L 1159 2969 
Q 1341 3281 1617 3432 
Q 1894 3584 2278 3584 
Q 2916 3584 3314 3078 
Q 3713 2572 3713 1747 
Q 3713 922 3314 415 
Q 2916 -91 2278 -91 
Q 1894 -91 1617 61 
Q 1341 213 1159 525 
z
M 3116 1747 
Q 3116 2381 2855 2742 
Q 2594 3103 2138 3103 
Q 1681 3103 1420 2742 
Q 1159 2381 1159 1747 
Q 1159 1113 1420 752 
Q 1681 391 2138 391 
Q 2594 391 2855 752 
Q 3116 1113 3116 1747 
z
" transform="scale(0.015625)"/>
       <path id="DejaVuSans-74" d="M 1172 4494 
L 1172 3500 
L 2356 3500 
L 2356 3053 
L 1172 3053 
L 1172 1153 
Q 1172 725 1289 603 
Q 1406 481 1766 481 
L 2356 481 
L 2356 0 
L 1766 0 
Q 1100 0 847 248 
Q 594 497 594 1153 
L 594 3053 
L 172 3053 
L 172 3500 
L 594 3500 
L 594 4494 
L 1172 4494 
z
" transform="scale(0.015625)"/>
       <path id="DejaVuSans-64" d="M 2906 2969 
L 2906 4863 
L 3481 4863 
L 3481 0 
L 2906 0 
L 2906 525 
Q 2725 213 2448 61 
Q 2172 -91 1784 -91 
Q 1150 -91 751 415 
Q 353 922 353 1747 
Q 353 2572 751 3078 
Q 1150 3584 1784 3584 
Q 2172 3584 2448 3432 
Q 2725 3281 2906 2969 
z
M 947 1747 
Q 947 1113 1208 752 
Q 1469 391 1925 391 
Q 2381 391 2643 752 
Q 2906 1113 2906 1747 
Q 2906 2381 2643 2742 
Q 2381 3103 1925 3103 
Q 1469 3103 1208 2742 
Q 947 2381 947 1747 
z
" transform="scale(0.015625)"/>
       <path id="DejaVuSans-61" d="M 2194 1759 
Q 1497 1759 1228 1600 
Q 959 1441 959 1056 
Q 959 750 1161 570 
Q 1363 391 1709 391 
Q 2188 391 2477 730 
Q 2766 1069 2766 1631 
L 2766 1759 
L 2194 1759 
z
M 3341 1997 
L 3341 0 
L 2766 0 
L 2766 531 
Q 2569 213 2275 61 
Q 1981 -91 1556 -91 
Q 1019 -91 701 211 
Q 384 513 384 1019 
Q 384 1609 779 1909 
Q 1175 2209 1959 2209 
L 2766 2209 
L 2766 2266 
Q 2766 2663 2505 2880 
Q 2244 3097 1772 3097 
Q 1472 3097 1187 3025 
Q 903 2953 641 2809 
L 641 3341 
Q 956 3463 1253 3523 
Q 1550 3584 1831 3584 
Q 2591 3584 2966 3190 
Q 3341 2797 3341 1997 
z
" transform="scale(0.015625)"/>
       <path id="DejaVuSans-6b" d="M 581 4863 
L 1159 4863 
L 1159 1991 
L 2875 3500 
L 3609 3500 
L 1753 1863 
L 3688 0 
L 2938 0 
L 1159 1709 
L 1159 0 
L 581 0 
L 581 4863 
z
" transform="scale(0.015625)"/>
      </defs>
      <use xlink:href="#DejaVuSans-41"/>
      <use xlink:href="#DejaVuSans-76" transform="translate(62.533203 0)"/>
      <use xlink:href="#DejaVuSans-67" transform="translate(121.712891 0)"/>
      <use xlink:href="#DejaVuSans-20" transform="translate(185.189453 0)"/>
      <use xlink:href="#DejaVuSans-63" transform="translate(216.976562 0)"/>
      <use xlink:href="#DejaVuSans-75" transform="translate(271.957031 0)"/>
      <use xlink:href="#DejaVuSans-6d" transform="translate(335.335938 0)"/>
      <use xlink:href="#DejaVuSans-75" transform="translate(432.748047 0)"/>
      <use xlink:href="#DejaVuSans-6c" transform="translate(496.126953 0)"/>
      <use xlink:href="#DejaVuSans-2e" transform="translate(523.910156 0)"/>
      <use xlink:href="#DejaVuSans-20" transform="translate(555.697266 0)"/>
      <use xlink:href="#DejaVuSans-63" transform="translate(587.484375 0)"/>
      <use xlink:href="#DejaVuSans-6f" transform="translate(642.464844 0)"/>
      <use xlink:href="#DejaVuSans-6d" transform="translate(703.646484 0)"/>
      <use xlink:href="#DejaVuSans-70" transform="translate(801.058594 0)"/>
      <use xlink:href="#DejaVuSans-6c" transform="translate(864.535156 0)"/>
      <use xlink:href="#DejaVuSans-65" transform="translate(892.318359 0)"/>
      <use xlink:href="#DejaVuSans-74" transform="translate(953.841797 0)"/>
      <use xlink:href="#DejaVuSans-65" transform="translate(993.050781 0)"/>
      <use xlink:href="#DejaVuSans-64" transform="translate(1054.574219 0)"/>
      <use xlink:href="#DejaVuSans-20" transform="translate(1118.050781 0)"/>
      <use xlink:href="#DejaVuSans-74" transform="translate(1149.837891 0)"/>
      <use xlink:href="#DejaVuSans-61" transform="translate(1189.046875 0)"/>
      <use xlink:href="#DejaVuSans-73" transform="translate(1250.326172 0)"/>
      <use xlink:href="#DejaVuSans-6b" transform="translate(1302.425781 0)"/>
      <use xlink:href="#DejaVuSans-73" transform="translate(1360.335938 0)"/>
     </g>
    </g>
   </g>
   <g id="line2d_23">
    <path d="M 48.423266 163.945866 
L 51.256773 163.945866 
L 51.256773 163.027578 
L 53.720673 163.027578 
L 53.720673 162.10929 
L 54.472662 162.10929 
L 54.509667 156.599559 
L 55.615404 156.599559 
L 55.615404 155.681271 
L 55.792058 155.681271 
L 55.792058 154.762982 
L 56.582374 154.762982 
L 56.586338 152.008117 
L 56.940967 152.008117 
L 56.940967 151.089829 
L 57.507492 151.089829 
L 57.507492 150.17154 
L 58.562128 150.17154 
L 58.562128 149.253252 
L 58.966978 149.253252 
L 58.966978 148.334963 
L 59.181076 148.334963 
L 59.181076 147.416675 
L 60.145843 147.416675 
L 60.153332 145.580098 
L 60.281527 145.580098 
L 60.327343 142.825233 
L 60.768757 142.825233 
L 60.859066 140.070368 
L 60.940124 140.070368 
L 60.940124 139.152079 
L 61.293872 139.152079 
L 61.293872 138.233791 
L 61.55687 138.233791 
L 61.55687 137.315503 
L 61.822952 137.315503 
L 61.822952 136.397214 
L 62.26833 136.397214 
L 62.26833 135.478926 
L 62.446305 135.478926 
L 62.446305 134.560637 
L 62.751595 134.560637 
L 62.753797 132.72406 
L 62.881992 132.72406 
L 62.931332 129.050907 
L 63.021641 129.050907 
L 63.061289 127.21433 
L 63.373627 127.21433 
L 63.373627 126.296042 
L 63.498298 126.296042 
L 63.498298 125.377753 
L 63.758653 125.377753 
L 63.84764 123.541176 
L 64.37672 123.541176 
L 64.430465 121.7046 
L 64.561303 121.7046 
L 64.561303 120.786311 
L 64.69082 120.786311 
L 64.727384 118.949734 
L 65.259107 118.949734 
L 65.265275 117.113157 
L 65.523868 117.113157 
L 65.523868 116.194869 
L 65.874532 116.194869 
L 65.874532 115.276581 
L 66.101406 115.276581 
L 66.145019 113.440004 
L 66.224315 113.440004 
L 66.224315 112.521715 
L 66.370131 112.521715 
L 66.370131 111.603427 
L 66.718592 111.603427 
L 66.718592 110.685139 
L 66.897008 110.685139 
L 66.897008 109.76685 
L 67.460009 109.76685 
L 67.553402 107.011985 
L 67.997019 107.011985 
L 67.997019 106.093697 
L 68.919935 106.093697 
L 68.919935 105.175408 
L 69.137999 105.175408 
L 69.137999 104.25712 
L 69.886464 104.25712 
L 69.886464 103.338831 
L 70.151224 103.338831 
L 70.151224 102.420543 
L 70.367966 102.420543 
L 70.464883 99.665678 
L 70.549466 99.665678 
L 70.549466 98.747389 
L 71.519519 98.747389 
L 71.519519 97.829101 
L 71.910271 97.829101 
L 71.915558 95.992524 
L 72.045515 95.992524 
L 72.045515 95.074236 
L 72.794861 95.074236 
L 72.794861 94.155947 
L 73.228786 94.155947 
L 73.228786 93.237659 
L 73.716456 93.237659 
L 73.716456 92.31937 
L 74.645539 92.31937 
L 74.645539 91.401082 
L 75.124399 91.401082 
L 75.124399 90.482794 
L 75.357 90.482794 
L 75.357 89.564505 
L 75.482992 89.564505 
L 75.524843 87.727928 
L 75.972424 87.727928 
L 75.972424 86.80964 
L 76.228374 86.80964 
L 76.228374 85.891351 
L 77.638519 85.891351 
L 77.638519 84.973063 
L 77.86275 84.973063 
L 77.86275 84.054775 
L 78.163634 84.054775 
L 78.170242 82.218198 
L 78.431478 82.218198 
L 78.431478 81.299909 
L 78.605929 81.299909 
L 78.605929 79.463333 
L 78.7469 79.463333 
L 78.7469 78.545044 
L 79.760566 78.545044 
L 79.760566 77.626756 
L 80.191847 77.626756 
L 80.191847 76.708467 
L 80.331056 76.708467 
L 80.331056 75.790179 
L 81.824902 75.790179 
L 81.824902 74.871891 
L 82.046931 74.871891 
L 82.046931 73.953602 
L 82.884824 73.953602 
L 82.884824 73.035314 
L 83.409499 73.035314 
L 83.409499 72.117025 
L 83.676462 72.117025 
L 83.676462 71.198737 
L 85.31216 71.198737 
L 85.351808 69.36216 
L 85.788816 69.36216 
L 85.835953 67.525583 
L 87.246099 67.525583 
L 87.28883 65.689006 
L 87.426717 65.689006 
L 87.426717 64.770718 
L 87.862845 64.770718 
L 87.862845 63.85243 
L 89.663743 63.85243 
L 89.671672 62.015853 
L 90.510006 62.015853 
L 90.510006 61.097564 
L 90.768158 61.097564 
L 90.768158 60.179276 
L 91.779181 60.179276 
L 91.779181 59.260988 
L 92.044382 59.260988 
L 92.044382 58.342699 
L 93.943959 58.342699 
L 93.980964 56.506122 
L 95.003 56.506122 
L 95.090666 54.669545 
L 97.33474 54.669545 
L 97.377472 52.832969 
L 97.460292 52.832969 
L 97.460292 51.91468 
L 98.306996 51.91468 
L 98.393781 50.078103 
L 98.785415 50.078103 
L 98.785415 49.159815 
L 99.442249 49.159815 
L 99.442249 48.241527 
L 100.862527 48.241527 
L 100.862527 47.323238 
L 102.442718 47.323238 
L 102.442718 46.40495 
L 102.929947 46.40495 
L 102.929947 45.486661 
L 104.074451 45.486661 
L 104.074451 44.568373 
L 105.080628 44.568373 
L 105.080628 43.650085 
L 109.534855 43.650085 
L 109.534855 42.731796 
L 111.130465 42.731796 
L 111.130465 41.813508 
L 117.339334 41.813508 
L 117.339334 40.895219 
L 161.914204 40.895219 
L 161.914204 39.976931 
L 230.276082 39.976931 
L 230.276082 39.976931 
" clip-path="url(#p2ca69009b4)" style="fill: none; stroke: #0072b2; stroke-width: 1.3; stroke-linecap: square"/>
   </g>
   <g id="line2d_24">
    <path d="M 48.423266 163.945866 
L 52.842691 163.945866 
L 52.842691 163.25715 
L 53.186306 163.25715 
L 53.194676 160.502285 
L 54.465614 160.502285 
L 54.465614 159.813569 
L 54.902622 159.813569 
L 54.910111 157.74742 
L 55.261216 157.74742 
L 55.261216 157.058703 
L 55.608356 157.058703 
L 55.608796 155.681271 
L 55.838314 155.681271 
L 55.838314 154.992554 
L 57.019823 154.992554 
L 57.019823 154.303838 
L 57.241411 154.303838 
L 57.241411 153.615122 
L 57.37357 153.615122 
L 57.37357 152.926406 
L 57.55551 152.926406 
L 57.55551 152.237689 
L 58.079744 152.237689 
L 58.170935 150.860257 
L 58.871822 150.860257 
L 58.871822 150.17154 
L 59.448039 150.17154 
L 59.448039 149.482824 
L 59.890775 149.482824 
L 59.934388 146.039242 
L 60.144962 146.039242 
L 60.144962 145.350526 
L 60.322937 145.350526 
L 60.323378 143.973094 
L 60.765232 143.973094 
L 60.765232 143.284377 
L 61.249378 143.284377 
L 61.250259 141.906945 
L 61.775374 141.906945 
L 61.775374 141.218228 
L 62.001808 141.218228 
L 62.001808 140.529512 
L 62.174056 140.529512 
L 62.174056 139.840796 
L 62.437054 139.840796 
L 62.437054 139.152079 
L 62.551593 139.152079 
L 62.573179 137.774647 
L 63.107105 137.774647 
L 63.107105 137.08593 
L 63.278031 137.08593 
L 63.372746 133.642349 
L 63.670106 133.642349 
L 63.670106 132.953633 
L 64.025175 132.953633 
L 64.115925 131.5762 
L 64.330905 131.5762 
L 64.330905 130.887484 
L 64.737517 130.887484 
L 64.737517 130.198767 
L 64.865271 130.198767 
L 64.865271 129.510051 
L 65.125185 129.510051 
L 65.128269 128.132618 
L 65.519462 128.132618 
L 65.529154 126.755186 
L 66.589076 126.755186 
L 66.589076 126.066469 
L 66.712866 126.066469 
L 66.712866 125.377753 
L 66.851633 125.377753 
L 66.930048 124.000321 
L 67.024322 124.000321 
L 67.024322 123.311604 
L 67.457806 123.311604 
L 67.502741 121.934172 
L 67.592169 121.934172 
L 67.592169 121.245455 
L 68.296581 121.245455 
L 68.296581 120.556739 
L 69.136236 120.556739 
L 69.13932 119.179306 
L 69.664876 119.179306 
L 69.664876 118.49059 
L 69.844613 118.49059 
L 69.844613 117.801874 
L 69.977213 117.801874 
L 69.977213 117.113157 
L 71.47062 117.113157 
L 71.47062 116.424441 
L 71.655643 116.424441 
L 71.688683 115.047009 
L 71.775909 115.047009 
L 71.775909 114.358292 
L 73.19046 114.358292 
L 73.19046 113.669576 
L 73.317774 113.669576 
L 73.317774 112.98086 
L 73.628349 112.98086 
L 73.628349 112.292143 
L 73.94333 112.292143 
L 73.94333 111.603427 
L 74.159632 111.603427 
L 74.159632 110.914711 
L 74.334083 110.914711 
L 74.334083 110.225994 
L 75.521319 110.225994 
L 75.521319 109.537278 
L 76.005905 109.537278 
L 76.005905 108.848562 
L 76.143791 108.848562 
L 76.143791 108.159845 
L 76.313397 108.159845 
L 76.313397 107.471129 
L 76.582562 107.471129 
L 76.582562 106.782413 
L 77.377724 106.782413 
L 77.377724 106.093697 
L 77.512967 106.093697 
L 77.512967 105.40498 
L 77.728828 105.40498 
L 77.818257 104.027548 
L 78.137643 104.027548 
L 78.137643 103.338831 
L 78.344693 103.338831 
L 78.344693 102.650115 
L 78.569806 102.650115 
L 78.569806 101.961399 
L 78.790512 101.961399 
L 78.790512 101.272682 
L 79.137652 101.272682 
L 79.137652 100.583966 
L 80.150437 100.583966 
L 80.150437 99.89525 
L 80.364977 99.89525 
L 80.374228 98.517817 
L 81.027978 98.517817 
L 81.027978 97.829101 
L 81.780849 97.829101 
L 81.780849 97.140385 
L 81.918295 97.140385 
L 82.001115 95.074236 
L 82.356185 95.074236 
L 82.356185 94.385519 
L 82.798039 94.385519 
L 82.837247 93.008087 
L 82.944737 93.008087 
L 82.944737 92.31937 
L 83.851794 92.31937 
L 83.851794 91.630654 
L 84.202458 91.630654 
L 84.202458 90.941938 
L 84.867662 90.941938 
L 84.867662 90.253221 
L 85.212159 90.253221 
L 85.212159 89.564505 
L 85.523175 89.564505 
L 85.523175 88.875789 
L 85.706877 88.875789 
L 85.749609 87.498356 
L 86.323623 87.498356 
L 86.323623 86.80964 
L 86.454902 86.80964 
L 86.454902 86.120924 
L 86.931999 86.120924 
L 86.931999 85.432207 
L 87.382664 85.432207 
L 87.417025 84.054775 
L 87.557115 84.054775 
L 87.601168 81.988626 
L 87.722755 81.988626 
L 87.722755 81.299909 
L 87.99148 81.299909 
L 87.99148 80.611193 
L 88.169896 80.611193 
L 88.169896 79.922477 
L 88.561089 79.922477 
L 88.561089 79.23376 
L 88.692368 79.23376 
L 88.74347 77.856328 
L 89.048318 77.856328 
L 89.048318 77.167612 
L 89.626297 77.167612 
L 89.626297 76.478895 
L 91.032038 76.478895 
L 91.032038 75.790179 
L 91.473892 75.790179 
L 91.473892 75.101463 
L 92.221036 75.101463 
L 92.221036 74.412746 
L 92.750556 74.412746 
L 92.750556 73.72403 
L 93.186683 73.72403 
L 93.276112 70.969165 
L 94.621499 70.969165 
L 94.729429 69.591732 
L 94.907845 69.591732 
L 94.993308 68.2143 
L 95.355867 68.2143 
L 95.355867 67.525583 
L 96.493323 67.525583 
L 96.493323 66.836867 
L 98.433429 66.836867 
L 98.433429 66.148151 
L 99.399517 66.148151 
L 99.399517 65.459434 
L 99.532999 65.459434 
L 99.532999 64.770718 
L 99.848861 64.770718 
L 99.848861 64.082002 
L 100.331244 64.082002 
L 100.331244 63.393285 
L 100.509219 63.393285 
L 100.509219 62.704569 
L 101.078828 62.704569 
L 101.078828 62.015853 
L 101.518039 62.015853 
L 101.604824 60.63842 
L 102.093375 60.63842 
L 102.181041 59.260988 
L 102.266945 59.260988 
L 102.315404 57.883555 
L 102.771355 57.883555 
L 102.771355 57.194839 
L 103.758589 57.194839 
L 103.758589 56.506122 
L 104.068284 56.506122 
L 104.068284 55.817406 
L 104.343617 55.817406 
L 104.343617 55.12869 
L 104.818071 55.12869 
L 104.824238 53.751257 
L 105.350675 53.751257 
L 105.350675 53.062541 
L 105.614554 53.062541 
L 105.614554 52.373824 
L 106.095175 52.373824 
L 106.095175 51.685108 
L 106.489893 51.685108 
L 106.491214 50.307676 
L 108.60489 50.307676 
L 108.610617 48.930243 
L 109.624283 48.930243 
L 109.624283 48.241527 
L 110.461296 48.241527 
L 110.461296 47.55281 
L 110.724294 47.55281 
L 110.81196 45.486661 
L 110.85337 45.486661 
L 110.85337 44.797945 
L 111.877168 44.797945 
L 111.877168 44.109229 
L 113.234009 44.109229 
L 113.322116 42.731796 
L 113.856482 42.731796 
L 113.856482 42.04308 
L 114.463536 42.04308 
L 114.463536 41.354364 
L 117.152989 41.354364 
L 117.152989 40.665647 
L 117.512023 40.665647 
L 117.512023 39.976931 
L 120.19707 39.976931 
L 120.19707 39.288215 
L 121.468888 39.288215 
L 121.468888 38.599498 
L 122.232772 38.599498 
L 122.232772 37.910782 
L 124.46363 37.910782 
L 124.46363 37.222066 
L 128.657502 37.222066 
L 128.73856 35.844633 
L 130.062802 35.844633 
L 130.062802 35.155917 
L 132.354894 35.155917 
L 132.354894 34.4672 
L 133.188823 34.4672 
L 133.188823 33.778484 
L 133.98046 33.778484 
L 133.98046 33.089768 
L 138.077415 33.089768 
L 138.077415 32.401051 
L 139.318836 32.401051 
L 139.318836 31.712335 
L 140.457173 31.712335 
L 140.457173 31.023619 
L 147.725524 31.023619 
L 147.725524 30.334903 
L 150.019378 30.334903 
L 150.019378 29.646186 
L 154.432195 29.646186 
L 154.432195 28.95747 
L 158.119895 28.95747 
L 158.119895 28.268754 
L 230.276082 28.268754 
L 230.276082 28.268754 
" clip-path="url(#p2ca69009b4)" style="fill: none; stroke: #009e73; stroke-width: 1.3; stroke-linecap: square"/>
   </g>
   <g id="line2d_25">
    <path d="M 48.423266 163.945866 
L 51.247521 163.945866 
L 51.247521 163.027578 
L 54.473103 163.027578 
L 54.511869 158.436136 
L 55.388089 158.436136 
L 55.389411 156.599559 
L 55.618488 156.599559 
L 55.618488 155.681271 
L 55.796023 155.681271 
L 55.796023 154.762982 
L 56.584136 154.762982 
L 56.585898 152.926406 
L 56.937443 152.926406 
L 56.980175 149.253252 
L 58.520277 149.253252 
L 58.564771 147.416675 
L 58.964334 147.416675 
L 58.964775 145.580098 
L 59.180195 145.580098 
L 59.180195 144.66181 
L 59.39914 144.66181 
L 59.44011 142.825233 
L 59.574032 142.825233 
L 59.574032 141.906945 
L 60.147605 141.906945 
L 60.152892 140.070368 
L 60.721179 140.070368 
L 60.810607 137.315503 
L 60.89563 137.315503 
L 60.89563 136.397214 
L 61.256426 136.397214 
L 61.256426 135.478926 
L 61.469204 135.478926 
L 61.478014 133.642349 
L 61.652906 133.642349 
L 61.735286 130.887484 
L 62.483751 130.887484 
L 62.483751 129.969195 
L 62.797851 129.969195 
L 62.889041 128.132618 
L 63.064373 128.132618 
L 63.064373 127.21433 
L 63.901385 127.21433 
L 63.901385 126.296042 
L 64.156013 126.296042 
L 64.243679 124.459465 
L 64.337072 124.459465 
L 64.337072 123.541176 
L 64.559101 123.541176 
L 64.559101 122.622888 
L 64.95514 122.622888 
L 65.045008 119.868023 
L 65.608009 119.868023 
L 65.608009 118.949734 
L 66.052947 118.949734 
L 66.09656 116.194869 
L 66.363083 116.194869 
L 66.363083 115.276581 
L 67.241064 115.276581 
L 67.241064 114.358292 
L 67.374986 114.358292 
L 67.37763 112.521715 
L 67.995256 112.521715 
L 67.995256 111.603427 
L 68.519931 111.603427 
L 68.525658 109.76685 
L 69.408045 109.76685 
L 69.487782 106.093697 
L 70.019945 106.093697 
L 70.019945 105.175408 
L 70.549466 105.175408 
L 70.549466 104.25712 
L 70.761802 104.25712 
L 70.761802 103.338831 
L 71.693529 103.338831 
L 71.779433 101.502254 
L 72.004986 101.502254 
L 72.004986 100.583966 
L 72.304989 100.583966 
L 72.304989 99.665678 
L 72.66138 99.665678 
L 72.710719 97.829101 
L 72.799707 97.829101 
L 72.799707 96.910812 
L 72.965788 96.910812 
L 72.965788 95.992524 
L 73.230989 95.992524 
L 73.230989 95.074236 
L 74.066679 95.074236 
L 74.113376 93.237659 
L 74.291792 93.237659 
L 74.291792 92.31937 
L 74.950829 92.31937 
L 75.041138 90.482794 
L 75.13365 90.482794 
L 75.215148 88.646217 
L 75.707664 88.646217 
L 75.707664 87.727928 
L 76.270665 87.727928 
L 76.367582 85.891351 
L 77.73015 85.891351 
L 77.768476 84.054775 
L 77.99491 84.054775 
L 78.032796 82.218198 
L 78.130594 82.218198 
L 78.130594 81.299909 
L 78.483461 81.299909 
L 78.483461 80.381621 
L 79.000206 80.381621 
L 79.000206 79.463333 
L 79.361443 79.463333 
L 79.361443 78.545044 
L 79.535453 78.545044 
L 79.535453 77.626756 
L 79.890523 77.626756 
L 79.890523 76.708467 
L 80.067617 76.708467 
L 80.067617 75.790179 
L 80.497136 75.790179 
L 80.505947 73.953602 
L 80.633702 73.953602 
L 80.677755 72.117025 
L 81.256615 72.117025 
L 81.347805 70.280448 
L 81.911247 70.280448 
L 81.911247 69.36216 
L 82.139002 69.36216 
L 82.139002 68.443872 
L 82.971169 68.443872 
L 82.971169 67.525583 
L 83.231523 67.525583 
L 83.324916 65.689006 
L 84.209066 65.689006 
L 84.209066 64.770718 
L 85.214802 64.770718 
L 85.214802 63.85243 
L 86.360187 63.85243 
L 86.360187 62.934141 
L 86.630234 62.934141 
L 86.720984 61.097564 
L 87.465044 61.097564 
L 87.547423 58.342699 
L 88.217474 58.342699 
L 88.217474 57.424411 
L 89.36374 57.424411 
L 89.36374 56.506122 
L 89.531142 56.506122 
L 89.531142 55.587834 
L 90.72807 55.587834 
L 90.72807 54.669545 
L 92.925888 54.669545 
L 92.925888 53.751257 
L 93.411355 53.751257 
L 93.411355 52.832969 
L 93.672591 52.832969 
L 93.672591 51.91468 
L 94.028542 51.91468 
L 94.028542 50.996392 
L 94.288896 50.996392 
L 94.288896 50.078103 
L 94.507841 50.078103 
L 94.507841 49.159815 
L 97.506548 49.159815 
L 97.506548 48.241527 
L 99.797759 48.241527 
L 99.797759 47.323238 
L 100.725521 47.323238 
L 100.725521 46.40495 
L 103.319819 46.40495 
L 103.319819 45.486661 
L 103.54405 45.486661 
L 103.54405 44.568373 
L 104.874459 44.568373 
L 104.874459 43.650085 
L 106.755093 43.650085 
L 106.755093 42.731796 
L 109.095203 42.731796 
L 109.137495 40.895219 
L 111.121654 40.895219 
L 111.121654 39.976931 
L 112.968368 39.976931 
L 112.968368 39.058642 
L 113.329164 39.058642 
L 113.329164 38.140354 
L 114.553845 38.140354 
L 114.553845 37.222066 
L 119.57636 37.222066 
L 119.618651 35.385489 
L 124.028824 35.385489 
L 124.028824 34.4672 
L 132.527583 34.4672 
L 132.527583 33.548912 
L 142.357632 33.548912 
L 142.357632 32.630624 
L 157.333544 32.630624 
L 157.333544 31.712335 
L 217.864511 31.712335 
L 217.864511 30.794047 
L 230.276082 30.794047 
L 230.276082 30.794047 
" clip-path="url(#p2ca69009b4)" style="fill: none; stroke: #cc79a7; stroke-width: 1.3; stroke-linecap: square"/>
   </g>
   <g id="line2d_26">
    <path d="M 48.423266 163.945866 
L 51.258975 163.945866 
L 51.258975 163.25715 
L 52.401277 163.25715 
L 52.401277 162.568434 
L 53.670011 162.568434 
L 53.670011 161.879718 
L 54.075742 161.879718 
L 54.075742 161.191001 
L 55.398221 161.191001 
L 55.398221 160.502285 
L 55.609677 160.502285 
L 55.609677 159.813569 
L 56.144484 159.813569 
L 56.229066 158.436136 
L 56.577528 158.436136 
L 56.577528 157.74742 
L 56.97621 157.74742 
L 56.97621 157.058703 
L 57.378857 157.058703 
L 57.378857 156.369987 
L 58.166089 156.369987 
L 58.166089 155.681271 
L 58.868298 155.681271 
L 58.868298 154.992554 
L 59.053762 154.992554 
L 59.053762 154.303838 
L 59.176671 154.303838 
L 59.176671 153.615122 
L 59.401783 153.615122 
L 59.401783 152.926406 
L 59.930423 152.926406 
L 59.930423 152.237689 
L 60.148486 152.237689 
L 60.148486 150.860257 
L 60.370074 150.860257 
L 60.370074 150.17154 
L 60.659945 150.17154 
L 60.767435 147.416675 
L 60.815013 147.416675 
L 60.815013 146.727959 
L 61.166117 146.727959 
L 61.253783 145.350526 
L 62.12736 145.350526 
L 62.12736 144.66181 
L 62.884636 144.66181 
L 62.927367 143.284377 
L 63.141907 143.284377 
L 63.237502 141.906945 
L 63.282437 141.906945 
L 63.366578 139.840796 
L 63.844997 139.840796 
L 63.891253 138.463363 
L 64.113282 138.463363 
L 64.113282 137.774647 
L 64.860866 137.774647 
L 64.950294 136.397214 
L 65.263072 136.397214 
L 65.263072 135.708498 
L 66.272773 135.708498 
L 66.272773 135.019782 
L 66.576741 135.019782 
L 66.576741 134.331065 
L 67.071019 134.331065 
L 67.071019 133.642349 
L 67.423445 133.642349 
L 67.423445 132.953633 
L 67.593931 132.953633 
L 67.593931 132.264916 
L 68.032261 132.264916 
L 68.032261 131.5762 
L 68.168386 131.5762 
L 68.168386 130.887484 
L 68.304951 130.887484 
L 68.304951 130.198767 
L 68.703193 130.198767 
L 68.746805 128.821335 
L 69.397472 128.821335 
L 69.397472 128.132618 
L 69.710691 128.132618 
L 69.710691 127.443902 
L 69.931839 127.443902 
L 70.014659 124.689037 
L 70.806737 124.689037 
L 70.806737 124.000321 
L 71.33846 124.000321 
L 71.425685 122.622888 
L 71.955646 122.622888 
L 72.038466 121.245455 
L 72.178996 121.245455 
L 72.178996 120.556739 
L 72.747284 120.556739 
L 72.747284 119.868023 
L 73.146847 119.868023 
L 73.146847 119.179306 
L 73.590463 119.179306 
L 73.590463 118.49059 
L 73.717337 118.49059 
L 73.759187 117.113157 
L 74.557873 117.113157 
L 74.557873 116.424441 
L 74.81999 116.424441 
L 74.81999 115.735725 
L 76.136302 115.735725 
L 76.234982 113.669576 
L 77.286093 113.669576 
L 77.286093 112.98086 
L 77.987421 112.98086 
L 77.987421 112.292143 
L 78.437646 112.292143 
L 78.437646 111.603427 
L 79.009457 111.603427 
L 79.115185 110.225994 
L 79.75572 110.225994 
L 79.75572 109.537278 
L 79.974665 109.537278 
L 79.974665 108.848562 
L 80.11167 108.848562 
L 80.11167 108.159845 
L 80.2848 108.159845 
L 80.2848 107.471129 
L 80.460572 107.471129 
L 80.460572 106.782413 
L 80.816523 106.782413 
L 80.816523 106.093697 
L 81.868074 106.093697 
L 81.868074 105.40498 
L 82.883503 105.40498 
L 82.883503 104.716264 
L 83.670294 104.716264 
L 83.670294 104.027548 
L 83.988359 104.027548 
L 83.988359 103.338831 
L 84.514355 103.338831 
L 84.514355 102.650115 
L 84.77515 102.650115 
L 84.77515 101.961399 
L 85.083964 101.961399 
L 85.083964 101.272682 
L 85.261058 101.272682 
L 85.261058 100.583966 
L 85.700269 100.583966 
L 85.700269 99.89525 
L 86.136837 99.89525 
L 86.136837 99.206533 
L 88.694571 99.206533 
L 88.787082 97.829101 
L 88.962855 97.829101 
L 88.962855 97.140385 
L 90.328066 97.140385 
L 90.328066 96.451668 
L 90.456702 96.451668 
L 90.456702 95.762952 
L 90.940847 95.762952 
L 90.940847 95.074236 
L 92.134691 95.074236 
L 92.134691 94.385519 
L 92.354517 94.385519 
L 92.354517 93.696803 
L 92.75408 93.696803 
L 92.75408 93.008087 
L 93.583163 93.008087 
L 93.583163 92.31937 
L 94.685376 92.31937 
L 94.685376 91.630654 
L 95.398599 91.630654 
L 95.398599 90.941938 
L 95.562477 90.941938 
L 95.562477 90.253221 
L 96.0942 90.253221 
L 96.0942 89.564505 
L 96.675703 89.564505 
L 96.675703 88.875789 
L 97.377472 88.875789 
L 97.377472 88.187073 
L 97.993337 88.187073 
L 97.993337 87.498356 
L 98.300829 87.498356 
L 98.300829 86.80964 
L 99.311411 86.80964 
L 99.354142 85.432207 
L 100.503492 85.432207 
L 100.503492 84.743491 
L 100.633009 84.743491 
L 100.633009 84.054775 
L 100.772658 84.054775 
L 100.772658 83.366058 
L 101.258125 83.366058 
L 101.337421 81.299909 
L 101.525529 81.299909 
L 101.525529 80.611193 
L 101.871347 80.611193 
L 101.871347 79.922477 
L 103.189861 79.922477 
L 103.285457 77.856328 
L 103.983702 77.856328 
L 103.983702 77.167612 
L 104.551548 77.167612 
L 104.642298 75.790179 
L 104.727321 75.790179 
L 104.727321 75.101463 
L 104.950671 75.101463 
L 105.036575 73.72403 
L 105.568738 73.72403 
L 105.568738 73.035314 
L 105.837023 73.035314 
L 105.837023 72.346597 
L 106.756855 72.346597 
L 106.756855 71.657881 
L 107.722503 71.657881 
L 107.722503 70.969165 
L 109.359083 70.969165 
L 109.359083 70.280448 
L 110.062613 70.280448 
L 110.062613 69.591732 
L 110.632222 69.591732 
L 110.632222 68.903016 
L 111.516812 68.903016 
L 111.516812 68.2143 
L 112.489068 68.2143 
L 112.489068 67.525583 
L 112.622549 67.525583 
L 112.622549 66.836867 
L 113.587316 66.836867 
L 113.587316 66.148151 
L 114.555167 66.148151 
L 114.555167 65.459434 
L 115.001427 65.459434 
L 115.001427 64.770718 
L 115.441078 64.770718 
L 115.522136 63.393285 
L 115.568392 63.393285 
L 115.617732 62.015853 
L 116.714659 62.015853 
L 116.714659 61.327136 
L 116.846378 61.327136 
L 116.846378 60.63842 
L 116.976335 60.63842 
L 116.976335 59.949704 
L 117.330083 59.949704 
L 117.422154 58.572271 
L 117.768413 58.572271 
L 117.768413 57.883555 
L 118.296612 57.883555 
L 118.351678 56.506122 
L 119.887816 56.506122 
L 119.887816 55.817406 
L 120.103677 55.817406 
L 120.103677 55.12869 
L 120.551699 55.12869 
L 120.551699 54.439973 
L 120.897517 54.439973 
L 120.897517 53.751257 
L 121.294878 53.751257 
L 121.294878 53.062541 
L 121.959642 53.062541 
L 121.959642 52.373824 
L 122.799297 52.373824 
L 122.799297 51.685108 
L 123.056128 51.685108 
L 123.056128 50.996392 
L 123.592697 50.996392 
L 123.592697 50.307676 
L 124.250853 50.307676 
L 124.250853 49.618959 
L 125.440732 49.618959 
L 125.440732 48.930243 
L 125.828841 48.930243 
L 125.828841 48.241527 
L 126.273779 48.241527 
L 126.273779 47.55281 
L 126.586558 47.55281 
L 126.586558 46.864094 
L 127.642515 46.864094 
L 127.642515 46.175378 
L 128.479527 46.175378 
L 128.479527 45.486661 
L 129.404646 45.486661 
L 129.404646 44.797945 
L 129.798923 44.797945 
L 129.798923 44.109229 
L 129.971612 44.109229 
L 129.971612 43.420512 
L 130.852677 43.420512 
L 130.852677 42.731796 
L 132.003789 42.731796 
L 132.003789 42.04308 
L 132.183086 42.04308 
L 132.261061 40.665647 
L 133.280453 40.665647 
L 133.283978 39.288215 
L 133.636404 39.288215 
L 133.636404 38.599498 
L 134.827164 38.599498 
L 134.827164 37.910782 
L 136.71705 37.910782 
L 136.71705 37.222066 
L 137.460669 37.222066 
L 137.460669 36.533349 
L 138.696804 36.533349 
L 138.696804 35.844633 
L 139.761131 35.844633 
L 139.761131 35.155917 
L 140.326335 35.155917 
L 140.326335 34.4672 
L 142.179216 34.4672 
L 142.179216 33.778484 
L 143.494647 33.778484 
L 143.494647 33.089768 
L 143.847513 33.089768 
L 143.847513 32.401051 
L 146.145773 32.401051 
L 146.189826 31.023619 
L 146.717585 31.023619 
L 146.717585 30.334903 
L 147.285431 30.334903 
L 147.285431 29.646186 
L 158.967039 29.646186 
L 158.967039 28.95747 
L 161.038424 28.95747 
L 161.038424 28.268754 
L 179.573841 28.268754 
L 179.573841 27.580037 
L 187.682288 27.580037 
L 187.682288 26.891321 
L 230.276082 26.891321 
L 230.276082 26.891321 
" clip-path="url(#p2ca69009b4)" style="fill: none; stroke: #d55e00; stroke-width: 2; stroke-linecap: square"/>
   </g>
   <g id="patch_3">
    <path d="M 39.330625 170.798594 
L 39.330625 20.038594 
" style="fill: none; stroke: #000000; stroke-width: 0.8; stroke-linejoin: miter; stroke-linecap: square"/>
   </g>
   <g id="patch_4">
    <path d="M 39.330625 170.798594 
L 239.368722 170.798594 
" style="fill: none; stroke: #000000; stroke-width: 0.8; stroke-linejoin: miter; stroke-linecap: square"/>
   </g>
   <g id="text_14">
    <!-- (a) Robot Failure (10-Robot) -->
    <g transform="translate(77.019752 14.038594) scale(0.09 -0.09)">
     <defs>
      <path id="DejaVuSans-52" d="M 2841 2188 
Q 3044 2119 3236 1894 
Q 3428 1669 3622 1275 
L 4263 0 
L 3584 0 
L 2988 1197 
Q 2756 1666 2539 1819 
Q 2322 1972 1947 1972 
L 1259 1972 
L 1259 0 
L 628 0 
L 628 4666 
L 2053 4666 
Q 2853 4666 3247 4331 
Q 3641 3997 3641 3322 
Q 3641 2881 3436 2590 
Q 3231 2300 2841 2188 
z
M 1259 4147 
L 1259 2491 
L 2053 2491 
Q 2509 2491 2742 2702 
Q 2975 2913 2975 3322 
Q 2975 3731 2742 3939 
Q 2509 4147 2053 4147 
L 1259 4147 
z
" transform="scale(0.015625)"/>
      <path id="DejaVuSans-62" d="M 3116 1747 
Q 3116 2381 2855 2742 
Q 2594 3103 2138 3103 
Q 1681 3103 1420 2742 
Q 1159 2381 1159 1747 
Q 1159 1113 1420 752 
Q 1681 391 2138 391 
Q 2594 391 2855 752 
Q 3116 1113 3116 1747 
z
M 1159 2969 
Q 1341 3281 1617 3432 
Q 1894 3584 2278 3584 
Q 2916 3584 3314 3078 
Q 3713 2572 3713 1747 
Q 3713 922 3314 415 
Q 2916 -91 2278 -91 
Q 1894 -91 1617 61 
Q 1341 213 1159 525 
L 1159 0 
L 581 0 
L 581 4863 
L 1159 4863 
L 1159 2969 
z
" transform="scale(0.015625)"/>
      <path id="DejaVuSans-46" d="M 628 4666 
L 3309 4666 
L 3309 4134 
L 1259 4134 
L 1259 2759 
L 3109 2759 
L 3109 2228 
L 1259 2228 
L 1259 0 
L 628 0 
L 628 4666 
z
" transform="scale(0.015625)"/>
      <path id="DejaVuSans-72" d="M 2631 2963 
Q 2534 3019 2420 3045 
Q 2306 3072 2169 3072 
Q 1681 3072 1420 2755 
Q 1159 2438 1159 1844 
L 1159 0 
L 581 0 
L 581 3500 
L 1159 3500 
L 1159 2956 
Q 1341 3275 1631 3429 
Q 1922 3584 2338 3584 
Q 2397 3584 2469 3576 
Q 2541 3569 2628 3553 
L 2631 2963 
z
" transform="scale(0.015625)"/>
      <path id="DejaVuSans-2d" d="M 313 2009 
L 1997 2009 
L 1997 1497 
L 313 1497 
L 313 2009 
z
" transform="scale(0.015625)"/>
     </defs>
     <use xlink:href="#DejaVuSans-28"/>
     <use xlink:href="#DejaVuSans-61" transform="translate(39.013672 0)"/>
     <use xlink:href="#DejaVuSans-29" transform="translate(100.292969 0)"/>
     <use xlink:href="#DejaVuSans-20" transform="translate(139.306641 0)"/>
     <use xlink:href="#DejaVuSans-52" transform="translate(171.09375 0)"/>
     <use xlink:href="#DejaVuSans-6f" transform="translate(236.076172 0)"/>
     <use xlink:href="#DejaVuSans-62" transform="translate(297.257812 0)"/>
     <use xlink:href="#DejaVuSans-6f" transform="translate(360.734375 0)"/>
     <use xlink:href="#DejaVuSans-74" transform="translate(421.916016 0)"/>
     <use xlink:href="#DejaVuSans-20" transform="translate(461.125 0)"/>
     <use xlink:href="#DejaVuSans-46" transform="translate(492.912109 0)"/>
     <use xlink:href="#DejaVuSans-61" transform="translate(541.306641 0)"/>
     <use xlink:href="#DejaVuSans-69" transform="translate(602.585938 0)"/>
     <use xlink:href="#DejaVuSans-6c" transform="translate(630.369141 0)"/>
     <use xlink:href="#DejaVuSans-75" transform="translate(658.152344 0)"/>
     <use xlink:href="#DejaVuSans-72" transform="translate(721.53125 0)"/>
     <use xlink:href="#DejaVuSans-65" transform="translate(760.394531 0)"/>
     <use xlink:href="#DejaVuSans-20" transform="translate(821.917969 0)"/>
     <use xlink:href="#DejaVuSans-28" transform="translate(853.705078 0)"/>
     <use xlink:href="#DejaVuSans-31" transform="translate(892.71875 0)"/>
     <use xlink:href="#DejaVuSans-30" transform="translate(956.341797 0)"/>
     <use xlink:href="#DejaVuSans-2d" transform="translate(1019.964844 0)"/>
     <use xlink:href="#DejaVuSans-52" transform="translate(1056.048828 0)"/>
     <use xlink:href="#DejaVuSans-6f" transform="translate(1121.03125 0)"/>
     <use xlink:href="#DejaVuSans-62" transform="translate(1182.212891 0)"/>
     <use xlink:href="#DejaVuSans-6f" transform="translate(1245.689453 0)"/>
     <use xlink:href="#DejaVuSans-74" transform="translate(1306.871094 0)"/>
     <use xlink:href="#DejaVuSans-29" transform="translate(1346.080078 0)"/>
    </g>
   </g>
  </g>
  <g id="axes_2">
   <g id="patch_5">
    <path d="M 282.768722 170.798594 
L 482.80682 170.798594 
L 482.80682 20.038594 
L 282.768722 20.038594 
z
" style="fill: #ffffff"/>
   </g>
   <g id="matplotlib.axis_3">
    <g id="xtick_6">
     <g id="line2d_27">
      <path d="M 291.861363 170.798594 
L 291.861363 20.038594 
" clip-path="url(#p4935d020a3)" style="fill: none; stroke-dasharray: 0.5,0.825; stroke-dashoffset: 0; stroke: #b0b0b0; stroke-opacity: 0.6; stroke-width: 0.5"/>
     </g>
     <g id="line2d_28">
      <g>
       <use xlink:href="#m5f1c4ed7b0" x="291.861363" y="170.798594" style="stroke: #000000; stroke-width: 0.8"/>
      </g>
     </g>
     <g id="text_15">
      <!-- 0 -->
      <g transform="translate(288.998238 184.637187) scale(0.09 -0.09)">
       <use xlink:href="#DejaVuSans-30"/>
      </g>
     </g>
    </g>
    <g id="xtick_7">
     <g id="line2d_29">
      <path d="M 338.957996 170.798594 
L 338.957996 20.038594 
" clip-path="url(#p4935d020a3)" style="fill: none; stroke-dasharray: 0.5,0.825; stroke-dashoffset: 0; stroke: #b0b0b0; stroke-opacity: 0.6; stroke-width: 0.5"/>
     </g>
     <g id="line2d_30">
      <g>
       <use xlink:href="#m5f1c4ed7b0" x="338.957996" y="170.798594" style="stroke: #000000; stroke-width: 0.8"/>
      </g>
     </g>
     <g id="text_16">
      <!-- 100 -->
      <g transform="translate(330.368621 184.637187) scale(0.09 -0.09)">
       <use xlink:href="#DejaVuSans-31"/>
       <use xlink:href="#DejaVuSans-30" transform="translate(63.623047 0)"/>
       <use xlink:href="#DejaVuSans-30" transform="translate(127.246094 0)"/>
      </g>
     </g>
    </g>
    <g id="xtick_8">
     <g id="line2d_31">
      <path d="M 386.054629 170.798594 
L 386.054629 20.038594 
" clip-path="url(#p4935d020a3)" style="fill: none; stroke-dasharray: 0.5,0.825; stroke-dashoffset: 0; stroke: #b0b0b0; stroke-opacity: 0.6; stroke-width: 0.5"/>
     </g>
     <g id="line2d_32">
      <g>
       <use xlink:href="#m5f1c4ed7b0" x="386.054629" y="170.798594" style="stroke: #000000; stroke-width: 0.8"/>
      </g>
     </g>
     <g id="text_17">
      <!-- 200 -->
      <g transform="translate(377.465254 184.637187) scale(0.09 -0.09)">
       <use xlink:href="#DejaVuSans-32"/>
       <use xlink:href="#DejaVuSans-30" transform="translate(63.623047 0)"/>
       <use xlink:href="#DejaVuSans-30" transform="translate(127.246094 0)"/>
      </g>
     </g>
    </g>
    <g id="xtick_9">
     <g id="line2d_33">
      <path d="M 433.151262 170.798594 
L 433.151262 20.038594 
" clip-path="url(#p4935d020a3)" style="fill: none; stroke-dasharray: 0.5,0.825; stroke-dashoffset: 0; stroke: #b0b0b0; stroke-opacity: 0.6; stroke-width: 0.5"/>
     </g>
     <g id="line2d_34">
      <g>
       <use xlink:href="#m5f1c4ed7b0" x="433.151262" y="170.798594" style="stroke: #000000; stroke-width: 0.8"/>
      </g>
     </g>
     <g id="text_18">
      <!-- 300 -->
      <g transform="translate(424.561887 184.637187) scale(0.09 -0.09)">
       <use xlink:href="#DejaVuSans-33"/>
       <use xlink:href="#DejaVuSans-30" transform="translate(63.623047 0)"/>
       <use xlink:href="#DejaVuSans-30" transform="translate(127.246094 0)"/>
      </g>
     </g>
    </g>
    <g id="xtick_10">
     <g id="line2d_35">
      <path d="M 480.247895 170.798594 
L 480.247895 20.038594 
" clip-path="url(#p4935d020a3)" style="fill: none; stroke-dasharray: 0.5,0.825; stroke-dashoffset: 0; stroke: #b0b0b0; stroke-opacity: 0.6; stroke-width: 0.5"/>
     </g>
     <g id="line2d_36">
      <g>
       <use xlink:href="#m5f1c4ed7b0" x="480.247895" y="170.798594" style="stroke: #000000; stroke-width: 0.8"/>
      </g>
     </g>
     <g id="text_19">
      <!-- 400 -->
      <g transform="translate(471.65852 184.637187) scale(0.09 -0.09)">
       <use xlink:href="#DejaVuSans-34"/>
       <use xlink:href="#DejaVuSans-30" transform="translate(63.623047 0)"/>
       <use xlink:href="#DejaVuSans-30" transform="translate(127.246094 0)"/>
      </g>
     </g>
    </g>
    <g id="text_20">
     <!-- Time (s) -->
     <g transform="translate(362.458865 198.107344) scale(0.1 -0.1)">
      <use xlink:href="#DejaVuSans-54"/>
      <use xlink:href="#DejaVuSans-69" transform="translate(57.958984 0)"/>
      <use xlink:href="#DejaVuSans-6d" transform="translate(85.742188 0)"/>
      <use xlink:href="#DejaVuSans-65" transform="translate(183.154297 0)"/>
      <use xlink:href="#DejaVuSans-20" transform="translate(244.677734 0)"/>
      <use xlink:href="#DejaVuSans-28" transform="translate(276.464844 0)"/>
      <use xlink:href="#DejaVuSans-73" transform="translate(315.478516 0)"/>
      <use xlink:href="#DejaVuSans-29" transform="translate(367.578125 0)"/>
     </g>
    </g>
   </g>
   <g id="matplotlib.axis_4">
    <g id="ytick_7">
     <g id="line2d_37">
      <path d="M 282.768722 163.945866 
L 482.80682 163.945866 
" clip-path="url(#p4935d020a3)" style="fill: none; stroke-dasharray: 0.5,0.825; stroke-dashoffset: 0; stroke: #b0b0b0; stroke-opacity: 0.6; stroke-width: 0.5"/>
     </g>
     <g id="line2d_38">
      <g>
       <use xlink:href="#mc4af61dc3b" x="282.768722" y="163.945866" style="stroke: #000000; stroke-width: 0.8"/>
      </g>
     </g>
     <g id="text_21">
      <!-- 0 -->
      <g transform="translate(270.042472 167.365163) scale(0.09 -0.09)">
       <use xlink:href="#DejaVuSans-30"/>
      </g>
     </g>
    </g>
    <g id="ytick_8">
     <g id="line2d_39">
      <path d="M 282.768722 136.534957 
L 482.80682 136.534957 
" clip-path="url(#p4935d020a3)" style="fill: none; stroke-dasharray: 0.5,0.825; stroke-dashoffset: 0; stroke: #b0b0b0; stroke-opacity: 0.6; stroke-width: 0.5"/>
     </g>
     <g id="line2d_40">
      <g>
       <use xlink:href="#mc4af61dc3b" x="282.768722" y="136.534957" style="stroke: #000000; stroke-width: 0.8"/>
      </g>
     </g>
     <g id="text_22">
      <!-- 10 -->
      <g transform="translate(264.316222 139.954254) scale(0.09 -0.09)">
       <use xlink:href="#DejaVuSans-31"/>
       <use xlink:href="#DejaVuSans-30" transform="translate(63.623047 0)"/>
      </g>
     </g>
    </g>
    <g id="ytick_9">
     <g id="line2d_41">
      <path d="M 282.768722 109.124048 
L 482.80682 109.124048 
" clip-path="url(#p4935d020a3)" style="fill: none; stroke-dasharray: 0.5,0.825; stroke-dashoffset: 0; stroke: #b0b0b0; stroke-opacity: 0.6; stroke-width: 0.5"/>
     </g>
     <g id="line2d_42">
      <g>
       <use xlink:href="#mc4af61dc3b" x="282.768722" y="109.124048" style="stroke: #000000; stroke-width: 0.8"/>
      </g>
     </g>
     <g id="text_23">
      <!-- 20 -->
      <g transform="translate(264.316222 112.543345) scale(0.09 -0.09)">
       <use xlink:href="#DejaVuSans-32"/>
       <use xlink:href="#DejaVuSans-30" transform="translate(63.623047 0)"/>
      </g>
     </g>
    </g>
    <g id="ytick_10">
     <g id="line2d_43">
      <path d="M 282.768722 81.713139 
L 482.80682 81.713139 
" clip-path="url(#p4935d020a3)" style="fill: none; stroke-dasharray: 0.5,0.825; stroke-dashoffset: 0; stroke: #b0b0b0; stroke-opacity: 0.6; stroke-width: 0.5"/>
     </g>
     <g id="line2d_44">
      <g>
       <use xlink:href="#mc4af61dc3b" x="282.768722" y="81.713139" style="stroke: #000000; stroke-width: 0.8"/>
      </g>
     </g>
     <g id="text_24">
      <!-- 30 -->
      <g transform="translate(264.316222 85.132436) scale(0.09 -0.09)">
       <use xlink:href="#DejaVuSans-33"/>
       <use xlink:href="#DejaVuSans-30" transform="translate(63.623047 0)"/>
      </g>
     </g>
    </g>
    <g id="ytick_11">
     <g id="line2d_45">
      <path d="M 282.768722 54.30223 
L 482.80682 54.30223 
" clip-path="url(#p4935d020a3)" style="fill: none; stroke-dasharray: 0.5,0.825; stroke-dashoffset: 0; stroke: #b0b0b0; stroke-opacity: 0.6; stroke-width: 0.5"/>
     </g>
     <g id="line2d_46">
      <g>
       <use xlink:href="#mc4af61dc3b" x="282.768722" y="54.30223" style="stroke: #000000; stroke-width: 0.8"/>
      </g>
     </g>
     <g id="text_25">
      <!-- 40 -->
      <g transform="translate(264.316222 57.721527) scale(0.09 -0.09)">
       <use xlink:href="#DejaVuSans-34"/>
       <use xlink:href="#DejaVuSans-30" transform="translate(63.623047 0)"/>
      </g>
     </g>
    </g>
    <g id="ytick_12">
     <g id="line2d_47">
      <path d="M 282.768722 26.891321 
L 482.80682 26.891321 
" clip-path="url(#p4935d020a3)" style="fill: none; stroke-dasharray: 0.5,0.825; stroke-dashoffset: 0; stroke: #b0b0b0; stroke-opacity: 0.6; stroke-width: 0.5"/>
     </g>
     <g id="line2d_48">
      <g>
       <use xlink:href="#mc4af61dc3b" x="282.768722" y="26.891321" style="stroke: #000000; stroke-width: 0.8"/>
      </g>
     </g>
     <g id="text_26">
      <!-- 50 -->
      <g transform="translate(264.316222 30.310618) scale(0.09 -0.09)">
       <use xlink:href="#DejaVuSans-35"/>
       <use xlink:href="#DejaVuSans-30" transform="translate(63.623047 0)"/>
      </g>
     </g>
    </g>
    <g id="text_27">
     <!-- Avg cumul. completed tasks -->
     <g transform="translate(258.236535 166.039687) rotate(-90) scale(0.1 -0.1)">
      <use xlink:href="#DejaVuSans-41"/>
      <use xlink:href="#DejaVuSans-76" transform="translate(62.533203 0)"/>
      <use xlink:href="#DejaVuSans-67" transform="translate(121.712891 0)"/>
      <use xlink:href="#DejaVuSans-20" transform="translate(185.189453 0)"/>
      <use xlink:href="#DejaVuSans-63" transform="translate(216.976562 0)"/>
      <use xlink:href="#DejaVuSans-75" transform="translate(271.957031 0)"/>
      <use xlink:href="#DejaVuSans-6d" transform="translate(335.335938 0)"/>
      <use xlink:href="#DejaVuSans-75" transform="translate(432.748047 0)"/>
      <use xlink:href="#DejaVuSans-6c" transform="translate(496.126953 0)"/>
      <use xlink:href="#DejaVuSans-2e" transform="translate(523.910156 0)"/>
      <use xlink:href="#DejaVuSans-20" transform="translate(555.697266 0)"/>
      <use xlink:href="#DejaVuSans-63" transform="translate(587.484375 0)"/>
      <use xlink:href="#DejaVuSans-6f" transform="translate(642.464844 0)"/>
      <use xlink:href="#DejaVuSans-6d" transform="translate(703.646484 0)"/>
      <use xlink:href="#DejaVuSans-70" transform="translate(801.058594 0)"/>
      <use xlink:href="#DejaVuSans-6c" transform="translate(864.535156 0)"/>
      <use xlink:href="#DejaVuSans-65" transform="translate(892.318359 0)"/>
      <use xlink:href="#DejaVuSans-74" transform="translate(953.841797 0)"/>
      <use xlink:href="#DejaVuSans-65" transform="translate(993.050781 0)"/>
      <use xlink:href="#DejaVuSans-64" transform="translate(1054.574219 0)"/>
      <use xlink:href="#DejaVuSans-20" transform="translate(1118.050781 0)"/>
      <use xlink:href="#DejaVuSans-74" transform="translate(1149.837891 0)"/>
      <use xlink:href="#DejaVuSans-61" transform="translate(1189.046875 0)"/>
      <use xlink:href="#DejaVuSans-73" transform="translate(1250.326172 0)"/>
      <use xlink:href="#DejaVuSans-6b" transform="translate(1302.425781 0)"/>
      <use xlink:href="#DejaVuSans-73" transform="translate(1360.335938 0)"/>
     </g>
    </g>
   </g>
   <g id="line2d_49">
    <path d="M 291.861363 163.945866 
L 298.327731 163.945866 
L 298.420982 162.118473 
L 298.84391 162.118473 
L 298.84391 161.204776 
L 299.549889 161.204776 
L 299.549889 160.291079 
L 300.58366 160.291079 
L 300.58366 159.377382 
L 301.054626 159.377382 
L 301.054626 158.463685 
L 301.431399 158.463685 
L 301.431399 157.549988 
L 302.755756 157.549988 
L 302.755756 156.636291 
L 302.982291 156.636291 
L 302.982291 155.722594 
L 303.177271 155.722594 
L 303.177271 154.808897 
L 303.640702 154.808897 
L 303.69345 152.067806 
L 304.069752 152.067806 
L 304.069752 151.154109 
L 304.252487 151.154109 
L 304.252487 150.240412 
L 304.518112 150.240412 
L 304.53648 148.413018 
L 304.867098 148.413018 
L 304.867098 147.499321 
L 305.532103 147.499321 
L 305.580612 144.75823 
L 305.951263 144.75823 
L 306.043101 142.930836 
L 306.527255 142.930836 
L 306.527255 142.017139 
L 306.657241 142.017139 
L 306.657241 141.103442 
L 306.992098 141.103442 
L 306.992098 140.189745 
L 307.840309 140.189745 
L 307.885522 138.362351 
L 308.165276 138.362351 
L 308.265591 136.534957 
L 309.25415 136.534957 
L 309.296066 134.707563 
L 309.675665 134.707563 
L 309.675665 133.793866 
L 309.811303 133.793866 
L 309.811303 132.88017 
L 310.051496 132.88017 
L 310.051496 131.966473 
L 310.475836 131.966473 
L 310.475836 131.052776 
L 311.224202 131.052776 
L 311.327814 128.311685 
L 312.268805 128.311685 
L 312.268805 127.397988 
L 312.827842 127.397988 
L 312.827842 126.484291 
L 313.200377 126.484291 
L 313.200377 125.570594 
L 313.349673 125.570594 
L 313.350144 123.7432 
L 313.485782 123.7432 
L 313.485782 122.829503 
L 313.777781 122.829503 
L 313.873387 121.002109 
L 313.958161 121.002109 
L 314.05471 119.174715 
L 314.38156 119.174715 
L 314.38156 118.261018 
L 314.519082 118.261018 
L 314.519082 117.347321 
L 315.178906 117.347321 
L 315.178906 116.433624 
L 316.177355 116.433624 
L 316.177355 115.519927 
L 316.741572 115.519927 
L 316.741572 114.60623 
L 316.93043 114.60623 
L 316.93043 113.692533 
L 317.1207 113.692533 
L 317.1207 112.778836 
L 317.535622 112.778836 
L 317.535622 111.865139 
L 318.008943 111.865139 
L 318.008943 110.951442 
L 318.522767 110.951442 
L 318.522767 110.037745 
L 318.714921 110.037745 
L 318.714921 109.124048 
L 319.098288 109.124048 
L 319.098288 108.210351 
L 319.71337 108.210351 
L 319.71337 107.296654 
L 319.944143 107.296654 
L 319.944143 106.382957 
L 320.299723 106.382957 
L 320.299723 105.46926 
L 321.114495 105.46926 
L 321.114495 104.555563 
L 321.539777 104.555563 
L 321.543074 102.72817 
L 322.009331 102.72817 
L 322.009331 101.814473 
L 322.760051 101.814473 
L 322.760051 100.900776 
L 324.034957 100.900776 
L 324.034957 99.987079 
L 324.186137 99.987079 
L 324.186137 99.073382 
L 324.512046 99.073382 
L 324.512046 98.159685 
L 325.003735 98.159685 
L 325.082386 96.332291 
L 325.120534 96.332291 
L 325.120534 95.418594 
L 325.505314 95.418594 
L 325.505314 94.504897 
L 325.967803 94.504897 
L 325.967803 93.5912 
L 326.249912 93.5912 
L 326.249912 92.677503 
L 326.868761 92.677503 
L 326.868761 91.763806 
L 327.338315 91.763806 
L 327.338315 90.850109 
L 327.571443 90.850109 
L 327.571443 89.936412 
L 327.898294 89.936412 
L 327.901591 88.109018 
L 328.045235 88.109018 
L 328.045235 87.195321 
L 329.223122 87.195321 
L 329.223593 85.367927 
L 329.542908 85.367927 
L 329.542908 84.45423 
L 330.490022 84.45423 
L 330.490022 83.540533 
L 330.681705 83.540533 
L 330.681705 82.626836 
L 331.014207 82.626836 
L 331.014207 81.713139 
L 331.29349 81.713139 
L 331.29349 80.799442 
L 331.437135 80.799442 
L 331.437135 79.885745 
L 331.568534 79.885745 
L 331.568534 78.972048 
L 331.772463 78.972048 
L 331.772463 78.058351 
L 332.609841 78.058351 
L 332.609841 77.144654 
L 333.172175 77.144654 
L 333.172175 76.230957 
L 333.697773 76.230957 
L 333.697773 75.31726 
L 335.345684 75.31726 
L 335.345684 74.403563 
L 335.818064 74.403563 
L 335.818064 73.489866 
L 337.366601 73.489866 
L 337.366601 72.57617 
L 337.881367 72.57617 
L 337.979328 69.835079 
L 338.309475 69.835079 
L 338.309475 68.921382 
L 340.010135 68.921382 
L 340.010135 68.007685 
L 340.288947 68.007685 
L 340.288947 67.093988 
L 341.602472 67.093988 
L 341.602472 66.180291 
L 341.889291 66.180291 
L 341.889291 65.266594 
L 342.981461 65.266594 
L 342.981461 64.352897 
L 344.710379 64.352897 
L 344.767837 62.525503 
L 345.132836 62.525503 
L 345.132836 61.611806 
L 346.508999 61.611806 
L 346.508999 60.698109 
L 346.791108 60.698109 
L 346.791108 59.784412 
L 347.594577 59.784412 
L 347.594577 58.870715 
L 348.348594 58.870715 
L 348.348594 57.957018 
L 348.673561 57.957018 
L 348.673561 57.043321 
L 361.999553 57.043321 
L 361.999553 56.129624 
L 365.397104 56.129624 
L 365.397104 55.215927 
L 473.714179 55.215927 
L 473.714179 55.215927 
" clip-path="url(#p4935d020a3)" style="fill: none; stroke: #0072b2; stroke-width: 1.3; stroke-linecap: square"/>
   </g>
   <g id="line2d_50">
    <path d="M 291.861363 163.945866 
L 296.908709 163.945866 
L 296.908709 162.575321 
L 299.173586 162.575321 
L 299.173586 161.204776 
L 300.017558 161.204776 
L 300.017558 159.83423 
L 301.337677 159.83423 
L 301.337677 158.463685 
L 302.989827 158.463685 
L 302.989827 157.093139 
L 303.45938 157.093139 
L 303.45938 155.722594 
L 304.069752 155.722594 
L 304.161591 152.981503 
L 304.723454 152.981503 
L 304.781853 148.869866 
L 305.05784 148.869866 
L 305.160039 146.128776 
L 306.325681 146.128776 
L 306.428823 143.387685 
L 306.70528 143.387685 
L 306.70528 142.017139 
L 307.464949 142.017139 
L 307.464949 140.646594 
L 309.80989 140.646594 
L 309.80989 139.276048 
L 310.289805 139.276048 
L 310.328424 136.534957 
L 310.614771 136.534957 
L 310.614771 135.164412 
L 310.752765 135.164412 
L 310.752765 133.793866 
L 311.039112 133.793866 
L 311.039112 132.423321 
L 311.835987 132.423321 
L 311.835987 131.052776 
L 312.83632 131.052776 
L 312.83632 129.68223 
L 313.401008 129.68223 
L 313.401008 128.311685 
L 313.774956 128.311685 
L 313.774956 126.941139 
L 313.954394 126.941139 
L 313.958632 124.200048 
L 314.850643 124.200048 
L 314.850643 122.829503 
L 317.026507 122.829503 
L 317.026507 121.458957 
L 318.864218 121.458957 
L 318.864218 120.088412 
L 320.453729 120.088412 
L 320.453729 118.717866 
L 320.938824 118.717866 
L 320.938824 117.347321 
L 321.118733 117.347321 
L 321.118733 115.976776 
L 322.056898 115.976776 
L 322.056898 114.60623 
L 322.300859 114.60623 
L 322.300859 113.235685 
L 323.569171 113.235685 
L 323.569171 111.865139 
L 325.076735 111.865139 
L 325.170457 107.753503 
L 325.315985 107.753503 
L 325.315985 106.382957 
L 326.070944 106.382957 
L 326.070944 105.012412 
L 326.540498 105.012412 
L 326.540498 103.641866 
L 327.711791 103.641866 
L 327.711791 102.271321 
L 328.553879 102.271321 
L 328.553879 100.900776 
L 328.792188 100.900776 
L 328.792188 99.53023 
L 329.166135 99.53023 
L 329.174142 96.789139 
L 329.363941 96.789139 
L 329.363941 95.418594 
L 329.502876 95.418594 
L 329.502876 94.048048 
L 329.645108 94.048048 
L 329.645108 92.677503 
L 331.531328 92.677503 
L 331.531328 91.306957 
L 332.227416 91.306957 
L 332.227416 89.936412 
L 333.594161 89.936412 
L 333.594161 88.565866 
L 334.537506 88.565866 
L 334.537506 87.195321 
L 334.776286 87.195321 
L 334.776286 85.824776 
L 336.477416 85.824776 
L 336.477416 84.45423 
L 336.888099 84.45423 
L 336.987002 81.713139 
L 337.507891 81.713139 
L 337.507891 80.342594 
L 338.114495 80.342594 
L 338.114495 78.972048 
L 340.187218 78.972048 
L 340.187218 77.601503 
L 340.48063 77.601503 
L 340.48063 76.230957 
L 341.039667 76.230957 
L 341.039667 74.860412 
L 343.021965 74.860412 
L 343.021965 73.489866 
L 345.046649 73.489866 
L 345.046649 72.119321 
L 346.269748 72.119321 
L 346.269748 70.748776 
L 346.505232 70.748776 
L 346.508057 68.007685 
L 348.05424 68.007685 
L 348.05424 66.637139 
L 348.763044 66.637139 
L 348.763044 65.266594 
L 352.063576 65.266594 
L 352.063576 63.896048 
L 353.052134 63.896048 
L 353.052134 62.525503 
L 353.621062 62.525503 
L 353.621062 61.154957 
L 353.810861 61.154957 
L 353.810861 59.784412 
L 355.544488 59.784412 
L 355.544488 58.413866 
L 356.576376 58.413866 
L 356.584382 55.672776 
L 358.424918 55.672776 
L 358.424918 54.30223 
L 360.016314 54.30223 
L 360.016314 52.931685 
L 362.748389 52.931685 
L 362.748389 51.561139 
L 362.937247 51.561139 
L 362.937247 50.190594 
L 364.116075 50.190594 
L 364.116075 48.820048 
L 364.450462 48.820048 
L 364.450462 47.449503 
L 365.719716 47.449503 
L 365.719716 46.078957 
L 366.567926 46.078957 
L 366.567926 44.708412 
L 368.07078 44.708412 
L 368.07078 43.337866 
L 369.768142 43.337866 
L 369.768142 41.967321 
L 377.548977 41.967321 
L 377.548977 40.596776 
L 378.250717 40.596776 
L 378.250717 39.22623 
L 379.559532 39.22623 
L 379.559532 37.855685 
L 385.361838 37.855685 
L 385.361838 36.485139 
L 389.075407 36.485139 
L 389.075407 35.114594 
L 401.600757 35.114594 
L 401.600757 33.744048 
L 407.253765 33.744048 
L 407.253765 32.373503 
L 415.647327 32.373503 
L 415.647327 31.002957 
L 473.714179 31.002957 
L 473.714179 31.002957 
" clip-path="url(#p4935d020a3)" style="fill: none; stroke: #009e73; stroke-width: 1.3; stroke-linecap: square"/>
   </g>
   <g id="line2d_51">
    <path d="M 291.861363 163.945866 
L 298.368705 163.945866 
L 298.372944 162.118473 
L 300.57895 162.118473 
L 300.582718 159.377382 
L 300.969381 159.377382 
L 300.969381 158.463685 
L 302.749634 158.463685 
L 302.749634 157.549988 
L 303.321387 157.549988 
L 303.321387 156.636291 
L 304.406493 156.636291 
L 304.406493 155.722594 
L 305.054543 155.722594 
L 305.110588 153.8952 
L 305.619703 153.8952 
L 305.666799 151.154109 
L 305.955031 151.154109 
L 305.955031 150.240412 
L 306.280468 150.240412 
L 306.283294 148.413018 
L 306.561635 148.413018 
L 306.610616 146.585624 
L 307.041079 146.585624 
L 307.041079 145.671927 
L 307.375465 145.671927 
L 307.375465 144.75823 
L 308.212372 144.75823 
L 308.261824 142.930836 
L 309.246143 142.930836 
L 309.251795 141.103442 
L 309.578646 141.103442 
L 309.578646 140.189745 
L 309.771271 140.189745 
L 309.771271 139.276048 
L 309.951651 139.276048 
L 309.951651 138.362351 
L 310.191373 138.362351 
L 310.191373 137.448654 
L 310.705668 137.448654 
L 310.705668 136.534957 
L 311.136602 136.534957 
L 311.175692 134.707563 
L 311.464866 134.707563 
L 311.464866 133.793866 
L 311.742265 133.793866 
L 311.835987 131.966473 
L 312.35405 131.966473 
L 312.451069 129.225382 
L 313.248886 129.225382 
L 313.34826 127.397988 
L 313.537118 127.397988 
L 313.537118 126.484291 
L 313.916716 126.484291 
L 313.916716 125.570594 
L 314.196941 125.570594 
L 314.24498 123.7432 
L 314.71312 123.7432 
L 314.768224 121.915806 
L 314.90763 121.915806 
L 314.90763 121.002109 
L 316.224451 121.002109 
L 316.224451 120.088412 
L 316.645495 120.088412 
L 316.645495 119.174715 
L 316.969991 119.174715 
L 316.969991 118.261018 
L 317.492293 118.261018 
L 317.492293 117.347321 
L 317.769221 117.347321 
L 317.769221 116.433624 
L 319.232513 116.433624 
L 319.232513 115.519927 
L 319.938492 115.519927 
L 319.938492 114.60623 
L 320.314794 114.60623 
L 320.4104 112.778836 
L 320.792354 112.778836 
L 320.792354 111.865139 
L 321.071637 111.865139 
L 321.071637 110.951442 
L 321.259081 110.951442 
L 321.259081 110.037745 
L 321.405552 110.037745 
L 321.407907 108.210351 
L 322.343717 108.210351 
L 322.395052 106.382957 
L 322.626297 106.382957 
L 322.626297 105.46926 
L 324.890703 105.46926 
L 324.890703 104.555563 
L 325.58632 104.555563 
L 325.58632 103.641866 
L 325.880203 103.641866 
L 325.880203 102.72817 
L 326.05917 102.72817 
L 326.159015 100.900776 
L 326.339395 100.900776 
L 326.339395 99.987079 
L 326.576291 99.987079 
L 326.576291 99.073382 
L 326.823549 99.073382 
L 326.823549 98.159685 
L 327.614301 98.159685 
L 327.617598 96.332291 
L 327.903945 96.332291 
L 327.903945 95.418594 
L 328.235977 95.418594 
L 328.235977 94.504897 
L 328.378208 94.504897 
L 328.378208 93.5912 
L 328.651369 93.5912 
L 328.651369 92.677503 
L 329.789224 92.677503 
L 329.789224 91.763806 
L 330.590337 91.763806 
L 330.59175 89.936412 
L 330.866324 89.936412 
L 330.866324 89.022715 
L 331.342942 89.022715 
L 331.385799 87.195321 
L 331.898682 87.195321 
L 331.898682 86.281624 
L 332.146881 86.281624 
L 332.146881 85.367927 
L 332.846266 85.367927 
L 332.846266 84.45423 
L 333.267781 84.45423 
L 333.267781 83.540533 
L 333.643141 83.540533 
L 333.643141 82.626836 
L 334.169681 82.626836 
L 334.169681 81.713139 
L 334.63217 81.713139 
L 334.727306 78.972048 
L 335.527006 78.972048 
L 335.538781 77.144654 
L 336.524042 77.144654 
L 336.524042 76.230957 
L 337.462678 76.230957 
L 337.462678 75.31726 
L 338.446527 75.31726 
L 338.504927 72.57617 
L 339.347485 72.57617 
L 339.347485 71.662473 
L 340.152838 71.662473 
L 340.239025 69.835079 
L 340.7585 69.835079 
L 340.7585 68.921382 
L 340.999164 68.921382 
L 340.999164 68.007685 
L 341.141396 68.007685 
L 341.141396 67.093988 
L 341.464008 67.093988 
L 341.464008 66.180291 
L 343.483512 66.180291 
L 343.536731 64.352897 
L 344.761243 64.352897 
L 344.761243 63.4392 
L 345.899098 63.4392 
L 345.899098 62.525503 
L 346.037091 62.525503 
L 346.131284 60.698109 
L 346.921095 60.698109 
L 346.921095 59.784412 
L 347.59128 59.784412 
L 347.59128 58.870715 
L 347.826292 58.870715 
L 347.826292 57.957018 
L 349.895247 57.957018 
L 349.895247 57.043321 
L 350.128846 57.043321 
L 350.128846 56.129624 
L 351.774874 56.129624 
L 351.774874 55.215927 
L 352.810529 55.215927 
L 352.810529 54.30223 
L 353.516978 54.30223 
L 353.567843 52.474836 
L 353.846655 52.474836 
L 353.846655 51.561139 
L 354.369898 51.561139 
L 354.369898 50.647442 
L 355.31136 50.647442 
L 355.31136 49.733745 
L 355.639623 49.733745 
L 355.639623 48.820048 
L 356.820807 48.820048 
L 356.820807 47.906351 
L 357.478276 47.906351 
L 357.486282 46.078957 
L 358.131035 46.078957 
L 358.131035 45.16526 
L 359.686166 45.16526 
L 359.686166 44.251563 
L 360.298422 44.251563 
L 360.298422 43.337866 
L 361.387297 43.337866 
L 361.387297 42.42417 
L 363.884831 42.42417 
L 363.884831 41.510473 
L 364.831473 41.510473 
L 364.831473 40.596776 
L 367.840006 40.596776 
L 367.840006 39.683079 
L 369.246312 39.683079 
L 369.246312 38.769382 
L 369.397492 38.769382 
L 369.397492 37.855685 
L 370.014929 37.855685 
L 370.014929 36.941988 
L 370.526398 36.941988 
L 370.526398 36.028291 
L 373.023462 36.028291 
L 373.023462 35.114594 
L 374.09962 35.114594 
L 374.09962 34.200897 
L 374.394445 34.200897 
L 374.394445 33.2872 
L 378.205504 33.2872 
L 378.205504 32.373503 
L 384.792439 32.373503 
L 384.792439 31.459806 
L 390.771828 31.459806 
L 390.771828 30.546109 
L 391.912037 30.546109 
L 391.912037 29.632412 
L 394.033741 29.632412 
L 394.033741 28.718715 
L 402.875191 28.718715 
L 402.875191 27.805018 
L 421.764238 27.805018 
L 421.764238 26.891321 
L 473.714179 26.891321 
L 473.714179 26.891321 
" clip-path="url(#p4935d020a3)" style="fill: none; stroke: #cc79a7; stroke-width: 1.3; stroke-linecap: square"/>
   </g>
   <g id="line2d_52">
    <path d="M 291.861363 163.945866 
L 298.329615 163.945866 
L 298.377182 161.890048 
L 300.582247 161.890048 
L 300.590253 159.83423 
L 300.9642 159.83423 
L 300.9642 159.148957 
L 302.749634 159.148957 
L 302.751047 157.778412 
L 303.312909 157.778412 
L 303.312909 157.093139 
L 303.592663 157.093139 
L 303.592663 156.407866 
L 304.394248 156.407866 
L 304.394719 155.037321 
L 304.538835 155.037321 
L 304.538835 154.352048 
L 305.016395 154.352048 
L 305.063962 152.981503 
L 305.249052 152.981503 
L 305.249052 152.29623 
L 305.529748 152.29623 
L 305.62818 150.240412 
L 305.665386 150.240412 
L 305.679044 146.814048 
L 305.951263 146.814048 
L 305.951263 146.128776 
L 306.093495 146.128776 
L 306.093495 145.443503 
L 306.235727 145.443503 
L 306.235727 144.75823 
L 306.567287 144.75823 
L 306.6125 143.387685 
L 306.801828 143.387685 
L 306.801828 142.702412 
L 307.362749 142.702412 
L 307.368872 141.331866 
L 308.266533 141.331866 
L 308.267004 139.961321 
L 308.399817 139.961321 
L 308.445972 138.590776 
L 309.199047 138.590776 
L 309.204227 137.22023 
L 309.667187 137.22023 
L 309.667187 136.534957 
L 309.812245 136.534957 
L 309.812245 135.849685 
L 310.706139 135.849685 
L 310.713203 134.479139 
L 311.226557 134.479139 
L 311.226557 133.793866 
L 311.36926 133.793866 
L 311.462511 131.738048 
L 311.696581 131.738048 
L 311.7498 128.996957 
L 312.077593 128.996957 
L 312.077593 128.311685 
L 313.676053 128.311685 
L 313.724562 126.941139 
L 314.247806 126.941139 
L 314.247806 125.570594 
L 314.572302 125.570594 
L 314.572302 124.885321 
L 314.755978 124.885321 
L 314.755978 124.200048 
L 314.905746 124.200048 
L 314.996642 122.829503 
L 315.192093 122.829503 
L 315.192093 122.14423 
L 315.421454 122.14423 
L 315.421454 121.458957 
L 315.83873 121.458957 
L 315.83873 120.773685 
L 316.076097 120.773685 
L 316.076097 120.088412 
L 316.269193 120.088412 
L 316.313935 118.717866 
L 317.213481 118.717866 
L 317.213481 118.032594 
L 317.579892 118.032594 
L 317.678795 116.662048 
L 318.059807 116.662048 
L 318.110672 115.291503 
L 318.344271 115.291503 
L 318.344271 114.60623 
L 318.616489 114.60623 
L 318.711154 113.235685 
L 319.181178 113.235685 
L 319.181178 112.550412 
L 319.32812 112.550412 
L 319.32812 111.865139 
L 319.987943 111.865139 
L 320.091556 110.494594 
L 320.311968 110.494594 
L 320.311968 109.809321 
L 320.830973 109.809321 
L 320.830973 109.124048 
L 321.638209 109.124048 
L 321.638209 108.438776 
L 322.631477 108.438776 
L 322.631477 107.753503 
L 322.960683 107.753503 
L 322.960683 107.06823 
L 323.097734 107.06823 
L 323.097734 106.382957 
L 323.847512 106.382957 
L 323.893196 105.012412 
L 324.229466 105.012412 
L 324.273266 103.641866 
L 324.603884 103.641866 
L 324.646742 102.271321 
L 324.842193 102.271321 
L 324.842193 101.586048 
L 325.070141 101.586048 
L 325.169515 100.215503 
L 325.64001 100.215503 
L 325.691346 98.159685 
L 326.250383 98.159685 
L 326.345989 96.789139 
L 327.522463 96.789139 
L 327.522463 96.103866 
L 327.707081 96.103866 
L 327.801275 94.733321 
L 328.469576 94.733321 
L 328.469576 94.048048 
L 329.360173 94.048048 
L 329.360173 93.362776 
L 330.168822 93.362776 
L 330.212622 91.99223 
L 330.67464 91.99223 
L 330.67464 91.306957 
L 331.008084 91.306957 
L 331.008084 90.621685 
L 331.340587 90.621685 
L 331.386741 88.565866 
L 331.759747 88.565866 
L 331.759747 87.880594 
L 332.046565 87.880594 
L 332.046565 87.195321 
L 332.474674 87.195321 
L 332.474674 86.510048 
L 332.99462 86.510048 
L 333.080807 85.139503 
L 333.125549 85.139503 
L 333.125549 84.45423 
L 333.550361 84.45423 
L 333.550361 83.768957 
L 333.880037 83.768957 
L 333.881921 82.398412 
L 334.023682 82.398412 
L 334.119288 81.027866 
L 334.404694 81.027866 
L 334.405165 79.657321 
L 335.149291 79.657321 
L 335.149291 78.972048 
L 335.906134 78.972048 
L 335.913199 77.601503 
L 336.42561 77.601503 
L 336.430791 76.230957 
L 336.901757 76.230957 
L 336.901757 75.545685 
L 337.044931 75.545685 
L 337.044931 74.860412 
L 337.180098 74.860412 
L 337.180098 74.175139 
L 337.650123 74.175139 
L 337.650123 73.489866 
L 338.918435 73.489866 
L 338.918435 72.804594 
L 339.444504 72.804594 
L 339.444504 72.119321 
L 339.581556 72.119321 
L 339.581556 71.434048 
L 340.093967 71.434048 
L 340.093967 70.748776 
L 340.671372 70.748776 
L 340.671372 70.063503 
L 341.32366 70.063503 
L 341.32366 69.37823 
L 341.843136 69.37823 
L 341.843136 68.692957 
L 342.646604 68.692957 
L 342.646604 68.007685 
L 343.354467 68.007685 
L 343.354467 67.322412 
L 343.767504 67.322412 
L 343.767504 66.637139 
L 344.010523 66.637139 
L 344.010523 65.951866 
L 345.238332 65.951866 
L 345.274597 64.581321 
L 345.60757 64.581321 
L 345.70035 63.210776 
L 345.933949 63.210776 
L 345.933949 62.525503 
L 346.119981 62.525503 
L 346.119981 61.84023 
L 346.363942 61.84023 
L 346.459077 60.469685 
L 347.016701 60.469685 
L 347.016701 59.784412 
L 347.63508 59.784412 
L 347.63508 59.099139 
L 348.146549 59.099139 
L 348.146549 58.413866 
L 348.529916 58.413866 
L 348.529916 57.728594 
L 349.235894 57.728594 
L 349.235894 57.043321 
L 349.513293 57.043321 
L 349.513293 56.358048 
L 350.838122 56.358048 
L 350.838122 55.672776 
L 351.067482 55.672776 
L 351.067482 54.987503 
L 351.311443 54.987503 
L 351.311443 54.30223 
L 351.639706 54.30223 
L 351.639706 53.616957 
L 353.326237 53.616957 
L 353.326237 52.931685 
L 354.508833 52.931685 
L 354.508833 52.246412 
L 354.840394 52.246412 
L 354.880426 50.875866 
L 355.16536 50.875866 
L 355.270857 49.505321 
L 355.49645 49.505321 
L 355.49645 48.820048 
L 355.644333 48.820048 
L 355.644333 48.134776 
L 356.820336 48.134776 
L 356.820336 47.449503 
L 357.141535 47.449503 
L 357.141535 46.76423 
L 358.043907 46.76423 
L 358.08441 45.393685 
L 358.427744 45.393685 
L 358.427744 44.708412 
L 358.803104 44.708412 
L 358.888349 43.337866 
L 359.275484 43.337866 
L 359.321167 41.967321 
L 359.408296 41.967321 
L 359.408296 41.282048 
L 362.464397 41.282048 
L 362.464397 40.596776 
L 362.796428 40.596776 
L 362.898157 39.22623 
L 363.74307 39.22623 
L 363.74307 38.540957 
L 363.890954 38.540957 
L 363.890954 37.855685 
L 364.167882 37.855685 
L 364.167882 37.170412 
L 364.682177 37.170412 
L 364.682177 36.485139 
L 364.829119 36.485139 
L 364.829119 35.799866 
L 365.101337 35.799866 
L 365.101337 35.114594 
L 365.770109 35.114594 
L 365.770109 34.429321 
L 369.673478 34.429321 
L 369.682427 33.058776 
L 374.193342 33.058776 
L 374.193342 32.373503 
L 375.187081 32.373503 
L 375.187081 31.68823 
L 376.973927 31.68823 
L 377.069062 30.317685 
L 377.402978 30.317685 
L 377.402978 29.632412 
L 377.95966 29.632412 
L 377.95966 28.947139 
L 383.51565 28.947139 
L 383.51565 28.261866 
L 429.111784 28.261866 
L 429.111784 27.576594 
L 473.714179 27.576594 
L 473.714179 26.891321 
L 473.714179 26.891321 
" clip-path="url(#p4935d020a3)" style="fill: none; stroke: #d55e00; stroke-width: 2; stroke-linecap: square"/>
   </g>
   <g id="patch_6">
    <path d="M 282.768722 170.798594 
L 282.768722 20.038594 
" style="fill: none; stroke: #000000; stroke-width: 0.8; stroke-linejoin: miter; stroke-linecap: square"/>
   </g>
   <g id="patch_7">
    <path d="M 282.768722 170.798594 
L 482.80682 170.798594 
" style="fill: none; stroke: #000000; stroke-width: 0.8; stroke-linejoin: miter; stroke-linecap: square"/>
   </g>
   <g id="text_28">
    <!-- (b) Mixed Stress (10-Robot) -->
    <g transform="translate(321.107537 14.038594) scale(0.09 -0.09)">
     <defs>
      <path id="DejaVuSans-4d" d="M 628 4666 
L 1569 4666 
L 2759 1491 
L 3956 4666 
L 4897 4666 
L 4897 0 
L 4281 0 
L 4281 4097 
L 3078 897 
L 2444 897 
L 1241 4097 
L 1241 0 
L 628 0 
L 628 4666 
z
" transform="scale(0.015625)"/>
      <path id="DejaVuSans-78" d="M 3513 3500 
L 2247 1797 
L 3578 0 
L 2900 0 
L 1881 1375 
L 863 0 
L 184 0 
L 1544 1831 
L 300 3500 
L 978 3500 
L 1906 2253 
L 2834 3500 
L 3513 3500 
z
" transform="scale(0.015625)"/>
      <path id="DejaVuSans-53" d="M 3425 4513 
L 3425 3897 
Q 3066 4069 2747 4153 
Q 2428 4238 2131 4238 
Q 1616 4238 1336 4038 
Q 1056 3838 1056 3469 
Q 1056 3159 1242 3001 
Q 1428 2844 1947 2747 
L 2328 2669 
Q 3034 2534 3370 2195 
Q 3706 1856 3706 1288 
Q 3706 609 3251 259 
Q 2797 -91 1919 -91 
Q 1588 -91 1214 -16 
Q 841 59 441 206 
L 441 856 
Q 825 641 1194 531 
Q 1563 422 1919 422 
Q 2459 422 2753 634 
Q 3047 847 3047 1241 
Q 3047 1584 2836 1778 
Q 2625 1972 2144 2069 
L 1759 2144 
Q 1053 2284 737 2584 
Q 422 2884 422 3419 
Q 422 4038 858 4394 
Q 1294 4750 2059 4750 
Q 2388 4750 2728 4690 
Q 3069 4631 3425 4513 
z
" transform="scale(0.015625)"/>
     </defs>
     <use xlink:href="#DejaVuSans-28"/>
     <use xlink:href="#DejaVuSans-62" transform="translate(39.013672 0)"/>
     <use xlink:href="#DejaVuSans-29" transform="translate(102.490234 0)"/>
     <use xlink:href="#DejaVuSans-20" transform="translate(141.503906 0)"/>
     <use xlink:href="#DejaVuSans-4d" transform="translate(173.291016 0)"/>
     <use xlink:href="#DejaVuSans-69" transform="translate(259.570312 0)"/>
     <use xlink:href="#DejaVuSans-78" transform="translate(287.353516 0)"/>
     <use xlink:href="#DejaVuSans-65" transform="translate(343.408203 0)"/>
     <use xlink:href="#DejaVuSans-64" transform="translate(404.931641 0)"/>
     <use xlink:href="#DejaVuSans-20" transform="translate(468.408203 0)"/>
     <use xlink:href="#DejaVuSans-53" transform="translate(500.195312 0)"/>
     <use xlink:href="#DejaVuSans-74" transform="translate(563.671875 0)"/>
     <use xlink:href="#DejaVuSans-72" transform="translate(602.880859 0)"/>
     <use xlink:href="#DejaVuSans-65" transform="translate(641.744141 0)"/>
     <use xlink:href="#DejaVuSans-73" transform="translate(703.267578 0)"/>
     <use xlink:href="#DejaVuSans-73" transform="translate(755.367188 0)"/>
     <use xlink:href="#DejaVuSans-20" transform="translate(807.466797 0)"/>
     <use xlink:href="#DejaVuSans-28" transform="translate(839.253906 0)"/>
     <use xlink:href="#DejaVuSans-31" transform="translate(878.267578 0)"/>
     <use xlink:href="#DejaVuSans-30" transform="translate(941.890625 0)"/>
     <use xlink:href="#DejaVuSans-2d" transform="translate(1005.513672 0)"/>
     <use xlink:href="#DejaVuSans-52" transform="translate(1041.597656 0)"/>
     <use xlink:href="#DejaVuSans-6f" transform="translate(1106.580078 0)"/>
     <use xlink:href="#DejaVuSans-62" transform="translate(1167.761719 0)"/>
     <use xlink:href="#DejaVuSans-6f" transform="translate(1231.238281 0)"/>
     <use xlink:href="#DejaVuSans-74" transform="translate(1292.419922 0)"/>
     <use xlink:href="#DejaVuSans-29" transform="translate(1331.628906 0)"/>
    </g>
   </g>
   <g id="legend_1">
    <g id="patch_8">
     <path d="M 322.92932 166.798594 
L 477.20682 166.798594 
Q 478.80682 166.798594 478.80682 165.198594 
L 478.80682 142.513594 
Q 478.80682 140.913594 477.20682 140.913594 
L 322.92932 140.913594 
Q 321.32932 140.913594 321.32932 142.513594 
L 321.32932 165.198594 
Q 321.32932 166.798594 322.92932 166.798594 
z
" style="fill: #ffffff; opacity: 0.8; stroke: #cccccc; stroke-linejoin: miter"/>
    </g>
    <g id="line2d_53">
     <path d="M 324.52932 147.392344 
L 332.52932 147.392344 
L 332.52932 147.392344 
L 340.52932 147.392344 
L 340.52932 147.392344 
" style="fill: none; stroke: #0072b2; stroke-width: 1.3; stroke-linecap: square"/>
    </g>
    <g id="text_29">
     <!-- BiG-MRTA -->
     <g transform="translate(346.92932 150.192344) scale(0.08 -0.08)">
      <defs>
       <path id="DejaVuSans-42" d="M 1259 2228 
L 1259 519 
L 2272 519 
Q 2781 519 3026 730 
Q 3272 941 3272 1375 
Q 3272 1813 3026 2020 
Q 2781 2228 2272 2228 
L 1259 2228 
z
M 1259 4147 
L 1259 2741 
L 2194 2741 
Q 2656 2741 2882 2914 
Q 3109 3088 3109 3444 
Q 3109 3797 2882 3972 
Q 2656 4147 2194 4147 
L 1259 4147 
z
M 628 4666 
L 2241 4666 
Q 2963 4666 3353 4366 
Q 3744 4066 3744 3513 
Q 3744 3084 3544 2831 
Q 3344 2578 2956 2516 
Q 3422 2416 3680 2098 
Q 3938 1781 3938 1306 
Q 3938 681 3513 340 
Q 3088 0 2303 0 
L 628 0 
L 628 4666 
z
" transform="scale(0.015625)"/>
       <path id="DejaVuSans-47" d="M 3809 666 
L 3809 1919 
L 2778 1919 
L 2778 2438 
L 4434 2438 
L 4434 434 
Q 4069 175 3628 42 
Q 3188 -91 2688 -91 
Q 1594 -91 976 548 
Q 359 1188 359 2328 
Q 359 3472 976 4111 
Q 1594 4750 2688 4750 
Q 3144 4750 3555 4637 
Q 3966 4525 4313 4306 
L 4313 3634 
Q 3963 3931 3569 4081 
Q 3175 4231 2741 4231 
Q 1884 4231 1454 3753 
Q 1025 3275 1025 2328 
Q 1025 1384 1454 906 
Q 1884 428 2741 428 
Q 3075 428 3337 486 
Q 3600 544 3809 666 
z
" transform="scale(0.015625)"/>
      </defs>
      <use xlink:href="#DejaVuSans-42"/>
      <use xlink:href="#DejaVuSans-69" transform="translate(68.603516 0)"/>
      <use xlink:href="#DejaVuSans-47" transform="translate(96.386719 0)"/>
      <use xlink:href="#DejaVuSans-2d" transform="translate(173.876953 0)"/>
      <use xlink:href="#DejaVuSans-4d" transform="translate(209.960938 0)"/>
      <use xlink:href="#DejaVuSans-52" transform="translate(296.240234 0)"/>
      <use xlink:href="#DejaVuSans-54" transform="translate(358.472656 0)"/>
      <use xlink:href="#DejaVuSans-41" transform="translate(411.806641 0)"/>
     </g>
    </g>
    <g id="line2d_54">
     <path d="M 324.52932 159.134844 
L 332.52932 159.134844 
L 332.52932 159.134844 
L 340.52932 159.134844 
L 340.52932 159.134844 
" style="fill: none; stroke: #009e73; stroke-width: 1.3; stroke-linecap: square"/>
    </g>
    <g id="text_30">
     <!-- RoSTAM-EA -->
     <g transform="translate(346.92932 161.934844) scale(0.08 -0.08)">
      <defs>
       <path id="DejaVuSans-45" d="M 628 4666 
L 3578 4666 
L 3578 4134 
L 1259 4134 
L 1259 2753 
L 3481 2753 
L 3481 2222 
L 1259 2222 
L 1259 531 
L 3634 531 
L 3634 0 
L 628 0 
L 628 4666 
z
" transform="scale(0.015625)"/>
      </defs>
      <use xlink:href="#DejaVuSans-52"/>
      <use xlink:href="#DejaVuSans-6f" transform="translate(64.982422 0)"/>
      <use xlink:href="#DejaVuSans-53" transform="translate(126.164062 0)"/>
      <use xlink:href="#DejaVuSans-54" transform="translate(189.640625 0)"/>
      <use xlink:href="#DejaVuSans-41" transform="translate(242.974609 0)"/>
      <use xlink:href="#DejaVuSans-4d" transform="translate(311.382812 0)"/>
      <use xlink:href="#DejaVuSans-2d" transform="translate(397.662109 0)"/>
      <use xlink:href="#DejaVuSans-45" transform="translate(433.746094 0)"/>
      <use xlink:href="#DejaVuSans-41" transform="translate(496.929688 0)"/>
     </g>
    </g>
    <g id="line2d_55">
     <path d="M 408.15682 147.392344 
L 416.15682 147.392344 
L 416.15682 147.392344 
L 424.15682 147.392344 
L 424.15682 147.392344 
" style="fill: none; stroke: #cc79a7; stroke-width: 1.3; stroke-linecap: square"/>
    </g>
    <g id="text_31">
     <!-- Cons-DBTA -->
     <g transform="translate(430.55682 150.192344) scale(0.08 -0.08)">
      <defs>
       <path id="DejaVuSans-43" d="M 4122 4306 
L 4122 3641 
Q 3803 3938 3442 4084 
Q 3081 4231 2675 4231 
Q 1875 4231 1450 3742 
Q 1025 3253 1025 2328 
Q 1025 1406 1450 917 
Q 1875 428 2675 428 
Q 3081 428 3442 575 
Q 3803 722 4122 1019 
L 4122 359 
Q 3791 134 3420 21 
Q 3050 -91 2638 -91 
Q 1578 -91 968 557 
Q 359 1206 359 2328 
Q 359 3453 968 4101 
Q 1578 4750 2638 4750 
Q 3056 4750 3426 4639 
Q 3797 4528 4122 4306 
z
" transform="scale(0.015625)"/>
       <path id="DejaVuSans-6e" d="M 3513 2113 
L 3513 0 
L 2938 0 
L 2938 2094 
Q 2938 2591 2744 2837 
Q 2550 3084 2163 3084 
Q 1697 3084 1428 2787 
Q 1159 2491 1159 1978 
L 1159 0 
L 581 0 
L 581 3500 
L 1159 3500 
L 1159 2956 
Q 1366 3272 1645 3428 
Q 1925 3584 2291 3584 
Q 2894 3584 3203 3211 
Q 3513 2838 3513 2113 
z
" transform="scale(0.015625)"/>
       <path id="DejaVuSans-44" d="M 1259 4147 
L 1259 519 
L 2022 519 
Q 2988 519 3436 956 
Q 3884 1394 3884 2338 
Q 3884 3275 3436 3711 
Q 2988 4147 2022 4147 
L 1259 4147 
z
M 628 4666 
L 1925 4666 
Q 3281 4666 3915 4102 
Q 4550 3538 4550 2338 
Q 4550 1131 3912 565 
Q 3275 0 1925 0 
L 628 0 
L 628 4666 
z
" transform="scale(0.015625)"/>
      </defs>
      <use xlink:href="#DejaVuSans-43"/>
      <use xlink:href="#DejaVuSans-6f" transform="translate(69.824219 0)"/>
      <use xlink:href="#DejaVuSans-6e" transform="translate(131.005859 0)"/>
      <use xlink:href="#DejaVuSans-73" transform="translate(194.384766 0)"/>
      <use xlink:href="#DejaVuSans-2d" transform="translate(246.484375 0)"/>
      <use xlink:href="#DejaVuSans-44" transform="translate(282.568359 0)"/>
      <use xlink:href="#DejaVuSans-42" transform="translate(359.570312 0)"/>
      <use xlink:href="#DejaVuSans-54" transform="translate(428.173828 0)"/>
      <use xlink:href="#DejaVuSans-41" transform="translate(481.507812 0)"/>
     </g>
    </g>
    <g id="line2d_56">
     <path d="M 408.15682 159.134844 
L 416.15682 159.134844 
L 416.15682 159.134844 
L 424.15682 159.134844 
L 424.15682 159.134844 
" style="fill: none; stroke: #d55e00; stroke-width: 2; stroke-linecap: square"/>
    </g>
    <g id="text_32">
     <!-- AHE-MRTA* -->
     <g transform="translate(430.55682 161.934844) scale(0.08 -0.08)">
      <defs>
       <path id="DejaVuSans-48" d="M 628 4666 
L 1259 4666 
L 1259 2753 
L 3553 2753 
L 3553 4666 
L 4184 4666 
L 4184 0 
L 3553 0 
L 3553 2222 
L 1259 2222 
L 1259 0 
L 628 0 
L 628 4666 
z
" transform="scale(0.015625)"/>
       <path id="DejaVuSans-2a" d="M 3009 3897 
L 1888 3291 
L 3009 2681 
L 2828 2375 
L 1778 3009 
L 1778 1831 
L 1422 1831 
L 1422 3009 
L 372 2375 
L 191 2681 
L 1313 3291 
L 191 3897 
L 372 4206 
L 1422 3572 
L 1422 4750 
L 1778 4750 
L 1778 3572 
L 2828 4206 
L 3009 3897 
z
" transform="scale(0.015625)"/>
      </defs>
      <use xlink:href="#DejaVuSans-41"/>
      <use xlink:href="#DejaVuSans-48" transform="translate(68.408203 0)"/>
      <use xlink:href="#DejaVuSans-45" transform="translate(143.603516 0)"/>
      <use xlink:href="#DejaVuSans-2d" transform="translate(206.787109 0)"/>
      <use xlink:href="#DejaVuSans-4d" transform="translate(242.871094 0)"/>
      <use xlink:href="#DejaVuSans-52" transform="translate(329.150391 0)"/>
      <use xlink:href="#DejaVuSans-54" transform="translate(391.382812 0)"/>
      <use xlink:href="#DejaVuSans-41" transform="translate(444.716797 0)"/>
      <use xlink:href="#DejaVuSans-2a" transform="translate(513.125 0)"/>
     </g>
    </g>
   </g>
  </g>
 </g>
 <defs>
  <clipPath id="p2ca69009b4">
   <rect x="39.330625" y="20.038594" width="200.038097" height="150.76"/>
  </clipPath>
  <clipPath id="p4935d020a3">
   <rect x="282.768722" y="20.038594" width="200.038097" height="150.76"/>
  </clipPath>
 </defs>
</svg>
